<?xml version="1.0" standalone="no"?>
<!DOCTYPE svg PUBLIC "-//W3C//DTD SVG 20010904//EN"
 "http://www.w3.org/TR/2001/REC-SVG-20010904/DTD/svg10.dtd">
<svg version="1.0" xmlns="http://www.w3.org/2000/svg"
 width="1280.000000pt" height="1280.000000pt" viewBox="0 0 1280.000000 1280.000000"
 preserveAspectRatio="xMidYMid meet">
<metadata>
Created by potrace 1.15, written by Peter Selinger 2001-2017
</metadata>
<g transform="translate(0.000000,1280.000000) scale(0.100000,-0.100000)"
fill="#000000" stroke="none">
<path d="M6100 12794 c-357 -24 -506 -40 -775 -85 -1655 -277 -3157 -1220
-4138 -2597 -1512 -2124 -1585 -4950 -185 -7151 746 -1172 1870 -2078 3181
-2565 521 -193 1065 -315 1662 -373 253 -24 857 -24 1110 0 596 58 1142 180
1662 373 742 276 1400 668 2007 1197 150 131 463 444 592 592 822 945 1344
2082 1518 3305 49 342 60 508 60 910 0 402 -11 568 -60 910 -296 2083 -1612
3897 -3503 4829 -734 362 -1473 566 -2316 641 -120 11 -712 21 -815 14z m424
-544 c88 -22 178 -67 233 -116 l38 -33 -85 34 c-135 54 -205 70 -310 70 -105
0 -176 -16 -307 -69 -46 -18 -83 -30 -83 -27 0 8 114 84 158 106 51 25 171 54
228 54 28 1 86 -8 128 -19z m-694 -66 c66 -21 208 -94 155 -80 -209 56 -374
67 -475 32 -70 -24 -157 -65 -240 -111 l-65 -36 55 52 c100 95 223 160 330
172 62 8 163 -5 240 -29z m1500 -5 c76 -29 179 -100 235 -160 l30 -32 -65 37
c-267 153 -389 166 -715 80 -44 -12 84 57 144 77 135 46 249 45 371 -2z
m-2278 -134 c37 -7 86 -23 110 -34 l43 -21 -35 4 c-293 37 -444 -2 -655 -171
-36 -29 -65 -49 -65 -45 0 4 24 36 53 70 54 65 133 130 199 163 91 46 229 60
350 34z m2946 0 c76 -18 119 -39 198 -98 51 -39 154 -153 154 -171 0 -3 -28
17 -62 45 -89 72 -201 136 -283 161 -75 24 -240 30 -355 15 -34 -4 -49 -4 -40
2 18 11 135 48 170 54 57 10 159 6 218 -8z m-1503 -169 c19 -15 48 -49 64 -77
l28 -49 36 53 c45 65 87 91 149 91 67 0 124 -41 162 -116 l28 -58 30 45 c52
78 132 110 204 80 65 -27 100 -71 128 -158 4 -14 13 -9 48 29 23 25 54 52 69
60 36 18 102 18 137 0 57 -30 112 -112 112 -167 0 -19 6 -16 45 24 25 25 62
51 82 58 46 15 114 7 146 -17 38 -29 75 -91 83 -140 l6 -44 36 31 c41 36 107
68 140 69 33 0 86 -24 112 -51 33 -35 60 -98 60 -142 l0 -38 46 36 c55 41 110
58 160 49 73 -14 134 -96 137 -185 1 -27 3 -49 4 -49 1 0 23 15 49 33 41 29
53 32 116 32 69 0 70 -1 108 -41 42 -46 64 -106 58 -165 l-3 -37 50 28 c64 36
104 44 153 30 76 -20 130 -114 119 -207 -2 -24 -3 -43 0 -43 2 0 21 9 41 19
103 52 202 27 249 -63 17 -32 22 -116 10 -159 l-8 -28 41 21 c126 64 247 11
266 -119 4 -24 2 -64 -3 -88 -10 -43 -10 -44 11 -38 11 4 42 12 68 18 127 29
224 -76 197 -216 -5 -27 -12 -53 -15 -59 -5 -8 1 -9 17 -4 13 4 49 9 79 12 69
7 133 -23 161 -76 23 -42 25 -133 5 -182 l-15 -34 82 3 c94 5 131 -11 167 -69
27 -45 27 -135 0 -190 -11 -23 -20 -42 -20 -42 0 -1 31 0 69 2 121 6 181 -42
189 -148 4 -52 -10 -101 -45 -160 -2 -3 28 -5 66 -5 57 -1 75 -5 108 -27 45
-30 73 -80 73 -130 0 -42 -26 -123 -46 -139 -24 -20 -15 -29 30 -29 121 0 212
-92 190 -193 -8 -41 -38 -100 -58 -116 -26 -22 -18 -31 27 -32 46 -1 90 -15
125 -40 30 -22 62 -86 62 -124 0 -38 -34 -112 -66 -146 l-25 -26 55 -12 c73
-16 116 -47 144 -101 36 -70 18 -143 -52 -214 l-34 -34 35 -5 c64 -11 122 -46
148 -91 43 -73 27 -147 -46 -222 l-41 -42 51 -17 c65 -21 115 -68 131 -123 19
-63 1 -115 -64 -177 l-51 -51 52 -23 c91 -40 135 -111 119 -194 -7 -38 -65
-110 -108 -137 l-28 -17 39 -18 c89 -40 141 -129 121 -205 -13 -48 -67 -112
-110 -130 -17 -7 -30 -15 -30 -19 0 -4 16 -15 36 -26 80 -43 126 -133 103
-202 -15 -48 -69 -106 -118 -128 l-40 -18 37 -27 c99 -73 125 -146 82 -231
-23 -44 -86 -94 -131 -104 l-29 -7 51 -46 c80 -72 96 -130 59 -208 -23 -46
-78 -89 -134 -105 l-37 -10 45 -49 c52 -55 66 -85 66 -136 0 -42 -18 -80 -57
-116 -31 -30 -91 -58 -123 -58 -28 0 -25 -11 15 -50 43 -42 70 -107 61 -152
-15 -79 -69 -128 -164 -149 l-53 -12 25 -26 c36 -38 66 -101 66 -138 0 -93
-80 -169 -184 -175 -25 -2 -46 -4 -46 -4 0 -1 15 -25 34 -53 19 -28 37 -64 41
-82 23 -105 -67 -198 -194 -199 -51 0 -53 -1 -39 -17 38 -44 60 -106 56 -158
-8 -97 -73 -150 -185 -150 -35 0 -63 -1 -63 -2 0 -1 11 -24 25 -51 50 -99 26
-201 -57 -243 -32 -16 -55 -20 -109 -17 -38 2 -69 2 -69 2 0 -1 10 -23 21 -49
40 -90 23 -180 -43 -227 -29 -20 -45 -23 -121 -23 -74 0 -86 -2 -81 -15 64
-146 12 -260 -123 -277 -27 -3 -66 0 -88 6 -21 6 -40 9 -41 8 -1 -1 5 -29 13
-63 20 -80 7 -129 -46 -177 -50 -45 -107 -56 -182 -33 -29 8 -54 14 -56 12 -1
-1 2 -18 7 -37 33 -114 -24 -216 -129 -234 -32 -5 -106 9 -152 29 -15 6 -15 2
-7 -41 19 -97 -32 -190 -116 -212 -50 -12 -93 -7 -150 20 -22 11 -40 19 -40
19 -1 0 -1 -30 -1 -67 0 -79 -21 -125 -75 -160 -47 -33 -131 -32 -194 2 -26
14 -48 25 -49 25 -1 0 -3 -27 -3 -59 -2 -66 -28 -123 -71 -155 -55 -41 -182
-27 -228 24 -27 30 -35 24 -35 -22 0 -66 -17 -111 -54 -147 -62 -60 -159 -58
-240 4 l-43 33 -6 -50 c-21 -173 -184 -228 -313 -107 l-31 30 -12 -55 c-22
-98 -83 -156 -164 -156 -48 0 -130 41 -159 80 l-22 30 -16 -53 c-22 -72 -46
-105 -93 -129 -76 -38 -189 -3 -235 74 -9 15 -19 28 -22 28 -3 0 -11 -21 -18
-47 -18 -65 -82 -128 -140 -138 -58 -9 -140 30 -179 85 -16 22 -30 40 -33 40
-4 0 -12 -16 -19 -35 -19 -52 -79 -111 -127 -124 -72 -19 -150 18 -198 94
l-29 45 -24 -42 c-33 -58 -62 -88 -100 -104 -86 -37 -182 9 -231 109 l-18 38
-37 -53 c-45 -66 -87 -92 -149 -92 -66 0 -123 41 -162 117 l-29 56 -29 -44
c-52 -78 -132 -110 -204 -80 -65 27 -100 70 -128 159 -6 17 -9 15 -32 -15 -77
-105 -194 -119 -276 -32 -30 32 -58 91 -58 125 0 20 -5 17 -47 -24 -66 -65
-130 -84 -195 -59 -55 21 -117 114 -118 175 l0 28 -35 -31 c-79 -69 -160 -84
-228 -43 -43 28 -87 109 -87 164 l0 39 -46 -36 c-55 -41 -110 -58 -160 -49
-73 14 -132 93 -137 184 -1 27 -3 50 -4 50 -1 0 -22 -14 -47 -31 -52 -37 -127
-49 -176 -29 -66 27 -117 120 -108 197 2 18 2 33 1 33 -2 0 -25 -11 -51 -24
-66 -33 -97 -38 -144 -25 -83 22 -136 110 -125 207 4 37 2 42 -12 36 -101 -43
-123 -48 -170 -35 -49 13 -85 40 -106 81 -20 39 -27 105 -17 144 12 41 13 41
-33 22 -132 -56 -242 -4 -261 123 -4 24 -2 64 3 88 10 43 10 44 -11 38 -11 -4
-42 -12 -68 -18 -133 -31 -233 88 -195 231 14 53 14 54 -7 48 -11 -3 -47 -9
-78 -12 -49 -6 -62 -3 -101 19 -27 16 -51 40 -61 61 -20 42 -21 132 -2 178
l15 34 -82 -3 c-94 -5 -131 11 -167 69 -27 45 -27 135 0 188 11 22 20 41 20
42 0 2 -31 2 -69 0 -84 -4 -131 15 -167 67 -34 50 -33 129 1 197 14 27 25 49
25 49 -107 0 -140 4 -167 18 -92 49 -110 189 -36 277 l25 30 -54 1 c-161 2
-238 120 -168 260 10 19 26 41 34 48 26 22 18 31 -26 32 -79 1 -138 34 -168
95 -33 64 -20 137 37 203 l33 40 -54 11 c-72 15 -116 45 -144 100 -18 34 -22
54 -17 85 8 50 48 120 81 142 l26 17 -53 13 c-71 18 -111 45 -137 91 -39 71
-20 153 52 223 l38 36 -53 19 c-67 24 -113 68 -129 122 -20 63 -1 115 64 178
l53 52 -53 22 c-91 37 -136 110 -120 193 7 38 65 110 109 137 l29 18 -43 20
c-54 24 -103 75 -118 124 -24 73 26 166 112 210 l41 20 -30 13 c-50 21 -102
73 -120 121 -14 38 -15 51 -5 85 15 51 69 110 120 134 l40 18 -37 27 c-99 73
-125 146 -82 231 23 44 86 94 131 104 l30 7 -47 41 c-48 43 -83 104 -84 146 0
14 10 45 21 69 24 49 89 97 145 108 l32 6 -43 39 c-94 87 -101 183 -18 261 31
30 91 58 123 58 28 0 26 7 -19 55 -51 55 -68 111 -53 164 23 74 83 123 172
137 l41 7 -24 26 c-53 59 -74 117 -63 176 14 71 95 132 180 137 25 2 46 4 46
4 0 1 -15 25 -34 53 -19 28 -37 64 -41 82 -23 105 67 198 193 199 l53 0 -21
28 c-74 94 -64 212 23 270 33 22 51 26 108 27 38 0 69 1 69 2 0 1 -12 25 -26
53 -50 99 -26 198 57 240 27 14 58 20 108 20 l70 0 -21 47 c-39 89 -22 177 44
225 29 20 45 23 121 23 74 0 86 2 81 15 -64 146 -12 260 123 277 27 3 66 0 88
-6 21 -6 40 -9 41 -8 1 1 -5 29 -13 63 -19 75 -7 128 39 173 54 53 139 62 232
25 16 -6 18 -4 12 12 -19 49 -18 121 2 167 42 94 145 118 274 63 14 -7 15 -3
7 34 -32 140 72 250 208 220 26 -6 58 -18 70 -26 12 -7 24 -14 25 -14 2 0 3
30 3 68 0 78 21 123 76 160 48 33 148 28 205 -9 l39 -26 1 62 c1 113 65 185
164 185 48 0 116 -27 139 -53 22 -27 31 -20 31 26 0 65 17 110 54 146 62 60
159 58 240 -4 l43 -33 6 48 c13 107 78 174 167 173 52 -1 113 -28 149 -67 l25
-26 13 52 c26 103 86 158 169 158 50 0 117 -34 152 -76 l28 -34 13 47 c28 106
93 159 183 151 55 -6 117 -44 147 -91 l20 -31 11 29 c25 70 33 84 63 113 38
36 94 55 133 46 51 -11 110 -52 139 -95 28 -40 30 -40 36 -18 19 73 73 131
138 149 68 18 149 -22 197 -98 l27 -42 27 47 c31 53 51 74 95 98 44 23 115 15
160 -19z m-2115 -89 l55 -11 -90 -8 c-116 -10 -208 -25 -267 -44 -74 -24 -186
-103 -279 -196 l-85 -85 -79 -12 c-117 -19 -253 -65 -321 -109 -68 -45 -137
-116 -216 -223 -56 -75 -56 -75 -139 -103 -249 -81 -385 -197 -494 -420 -15
-31 -30 -55 -32 -53 -10 10 22 109 62 193 53 110 123 185 222 236 73 38 174
67 239 69 73 2 83 9 113 80 72 171 179 274 341 330 53 18 88 22 187 23 l121 0
35 61 c134 233 353 328 627 272z m4350 -7 c125 -36 242 -134 317 -265 l35 -61
121 0 c99 -1 134 -5 187 -23 163 -56 268 -158 341 -330 30 -71 40 -78 113 -80
65 -2 166 -31 239 -69 99 -51 169 -126 222 -236 40 -84 72 -183 62 -193 -2 -2
-16 20 -30 49 -46 94 -125 204 -187 262 -67 62 -175 119 -308 162 l-83 28 -69
90 c-76 102 -145 171 -217 216 -58 37 -200 84 -308 101 l-80 13 -75 76 c-84
84 -184 160 -251 189 -60 26 -174 48 -294 57 -111 8 -105 19 20 33 89 10 163
5 245 -19z m-6408 -1324 c-125 -67 -188 -112 -247 -179 -49 -56 -120 -192
-155 -297 -21 -62 -25 -67 -93 -110 -38 -25 -108 -80 -154 -124 -68 -64 -91
-93 -123 -160 -36 -73 -89 -246 -91 -300 -1 -16 -3 -14 -10 9 -12 36 -3 157
17 234 42 160 190 312 358 367 68 22 72 26 75 79 3 74 38 193 75 259 42 75
133 164 207 202 57 29 190 73 224 73 11 0 -26 -24 -83 -53z m8156 34 c213 -59
351 -195 402 -395 11 -43 20 -97 20 -120 0 -49 7 -56 76 -79 168 -55 316 -207
358 -369 20 -78 30 -207 17 -237 -9 -23 -10 -23 -10 -4 -2 51 -54 223 -90 299
-33 68 -55 96 -124 161 -46 43 -116 99 -154 124 -68 43 -72 48 -93 110 -35
105 -106 241 -155 297 -59 67 -122 112 -247 179 -112 58 -112 65 0 34z m-9142
-1342 c-91 -91 -120 -127 -150 -188 -42 -87 -76 -232 -76 -332 0 -38 -4 -68
-9 -68 -5 0 -14 38 -21 85 -34 241 74 454 290 573 41 23 76 42 77 42 1 0 -49
-51 -111 -112z m10155 31 c174 -118 260 -317 229 -534 -7 -47 -16 -85 -21 -85
-5 0 -9 30 -9 68 0 86 -31 236 -64 307 -34 76 -100 158 -198 250 -79 74 -81
76 -38 55 25 -13 70 -40 101 -61z m-10459 -723 c-81 -102 -129 -180 -156 -255
-18 -48 -21 -82 -23 -242 l-1 -186 -42 -64 c-45 -70 -88 -156 -116 -234 -26
-71 -24 -268 3 -389 l20 -89 -32 -71 c-69 -153 -101 -291 -90 -390 9 -77 39
-192 70 -268 13 -32 20 -58 16 -58 -4 0 -28 35 -53 78 -134 223 -121 439 36
649 l47 62 -24 48 c-36 70 -66 175 -73 252 -12 137 49 288 167 416 l69 73 -20
56 c-89 259 -9 503 219 665 24 17 45 31 47 31 2 0 -27 -38 -64 -84z m10780 4
c180 -157 238 -383 158 -616 l-20 -56 69 -73 c120 -129 180 -280 166 -419 -7
-79 -36 -180 -72 -249 l-24 -49 39 -51 c165 -218 179 -433 44 -659 -25 -43
-49 -78 -53 -78 -4 0 3 26 16 58 31 76 61 191 70 268 11 99 -21 237 -90 390
l-32 71 20 89 c27 121 29 318 3 389 -28 78 -71 164 -116 234 l-41 64 -2 186
c-2 159 -5 194 -23 242 -27 75 -75 153 -157 256 -56 70 -62 81 -37 66 17 -10
54 -38 82 -63z m-11143 -2330 c-34 -109 -52 -230 -46 -315 6 -94 31 -173 98
-310 l49 -100 -41 45 c-171 184 -210 400 -114 624 17 40 62 116 69 116 2 0 -4
-27 -15 -60z m11500 -24 c112 -228 88 -433 -74 -629 -31 -38 -58 -67 -60 -65
-2 2 22 55 54 118 63 128 91 227 91 320 0 66 -30 228 -55 300 -22 63 4 36 44
-44z m-11409 -777 c-13 -82 -13 -271 1 -329 15 -67 81 -194 147 -286 l59 -81
1 -117 c4 -247 57 -373 236 -556 62 -64 63 -66 70 -132 10 -101 51 -250 88
-321 35 -66 158 -197 240 -256 27 -19 46 -37 43 -39 -9 -10 -150 68 -202 110
-143 119 -199 254 -191 463 l4 110 -64 40 c-80 50 -179 155 -216 230 -58 118
-68 261 -30 407 l15 61 -38 31 c-178 144 -258 334 -224 530 12 66 60 211 68
203 2 -3 -1 -33 -7 -68z m11315 -32 c31 -92 41 -201 26 -282 -22 -121 -109
-258 -224 -351 l-38 -31 15 -59 c68 -263 -18 -489 -241 -634 l-69 -45 4 -110
c7 -209 -48 -344 -191 -463 -52 -42 -193 -120 -202 -110 -3 2 16 20 43 39 82
59 205 190 240 256 37 71 78 219 88 321 7 67 7 67 83 147 172 179 220 296 222
540 l1 117 59 81 c72 99 134 222 150 297 11 52 7 274 -6 360 -9 51 8 20 40
-73z m-10336 -2327 c59 -144 138 -229 320 -339 91 -55 93 -59 10 -35 -87 26
-189 85 -251 145 -95 93 -158 255 -157 404 l0 60 28 -90 c15 -49 38 -115 50
-145z m9387 49 c-36 -168 -130 -297 -271 -371 -62 -32 -161 -68 -189 -68 -5 0
21 19 60 42 138 83 212 144 264 220 48 67 101 190 127 292 l18 69 3 -55 c2
-30 -4 -88 -12 -129z m-8841 -699 c76 -114 159 -177 335 -253 109 -47 109 -48
60 -42 -197 24 -338 106 -432 249 -39 61 -81 176 -91 256 -6 42 -3 39 38 -48
24 -51 65 -124 90 -162z m8351 173 c-59 -277 -233 -435 -516 -467 -43 -5 -44
-5 -15 7 99 39 269 133 314 173 62 56 136 166 187 279 21 47 39 83 41 81 2 -2
-3 -35 -11 -73z m-7834 -587 c125 -189 240 -269 477 -329 l91 -23 73 -84 c87
-101 171 -171 252 -210 63 -29 227 -69 292 -71 21 0 47 -4 58 -8 50 -20 -179
-28 -267 -10 -149 31 -288 143 -366 297 l-43 82 -78 0 c-250 0 -440 130 -532
364 -30 75 -38 117 -16 82 7 -11 33 -51 59 -90z m7240 12 c-91 -237 -282 -368
-533 -368 l-78 0 -31 -62 c-46 -90 -82 -138 -145 -196 -62 -57 -153 -104 -233
-121 -88 -18 -317 -10 -267 10 11 4 37 8 58 8 65 2 229 42 292 71 79 38 179
121 259 217 l65 78 90 22 c114 28 224 74 292 121 63 44 163 160 215 250 21 36
40 60 42 54 2 -6 -10 -43 -26 -84z m-5792 -885 c133 -98 219 -124 430 -128
l155 -2 70 -48 c87 -59 184 -108 254 -129 70 -20 237 -21 350 -1 47 8 86 13
88 11 3 -2 -31 -18 -74 -34 -252 -97 -447 -57 -634 129 l-69 69 -82 -21 c-67
-17 -102 -21 -193 -17 -103 4 -117 7 -189 41 -89 42 -185 128 -249 222 l-41
60 65 -56 c35 -30 89 -74 119 -96z m4453 105 c-10 -18 -51 -67 -92 -110 -60
-63 -91 -87 -158 -120 -81 -40 -89 -42 -197 -46 -92 -4 -127 -1 -194 17 l-82
21 -69 -69 c-75 -74 -157 -129 -236 -156 -67 -24 -193 -31 -264 -15 -60 13
-215 69 -208 76 2 2 41 -3 88 -11 113 -20 280 -19 350 1 70 21 167 70 254 129
l70 48 155 2 c167 3 231 15 323 61 52 26 158 103 232 168 22 19 41 35 43 36 2
0 -5 -14 -15 -32z m-2860 -500 c81 -28 104 -32 192 -31 99 1 240 30 331 68 29
12 39 12 68 0 91 -38 232 -67 331 -68 88 -1 111 3 192 31 51 17 125 47 165 67
l73 36 -50 -46 c-49 -45 -158 -108 -218 -127 -147 -45 -307 -20 -460 72 l-67
41 -67 -41 c-153 -92 -313 -117 -460 -72 -60 19 -169 82 -218 127 l-50 46 73
-36 c40 -20 114 -50 165 -67z"/>
<path d="M6340 11844 c-14 -9 -36 -32 -48 -51 -29 -43 -62 -170 -62 -235 l0
-48 170 0 170 0 0 48 c0 65 -35 198 -62 238 -42 61 -114 82 -168 48z"/>
<path d="M5974 11834 c-60 -29 -104 -148 -104 -280 l0 -66 93 7 c50 4 128 10
172 14 l80 6 -3 30 c-6 63 -34 162 -60 210 -46 84 -110 113 -178 79z"/>
<path d="M6709 11827 c-56 -38 -110 -162 -121 -282 l-3 -30 80 -6 c44 -4 122
-10 173 -14 l92 -7 0 66 c0 218 -106 350 -221 273z"/>
<path d="M5599 11795 c-35 -19 -56 -54 -74 -122 -16 -61 -21 -218 -7 -227 10
-6 329 38 338 46 3 4 -4 42 -16 87 -49 179 -147 267 -241 216z"/>
<path d="M7079 11787 c-19 -12 -48 -46 -66 -75 -31 -52 -80 -208 -69 -220 9
-8 328 -52 338 -46 14 9 9 166 -7 227 -18 70 -39 103 -76 123 -40 20 -81 17
-120 -9z"/>
<path d="M5250 11737 c-70 -24 -107 -129 -96 -271 3 -44 10 -84 15 -89 9 -9
298 46 327 62 8 4 5 26 -11 73 -44 131 -110 217 -175 231 -14 3 -41 0 -60 -6z"/>
<path d="M7482 11741 c-63 -17 -138 -124 -176 -253 -12 -43 -12 -48 3 -52 9
-3 83 -19 164 -37 114 -24 151 -29 160 -20 8 8 12 51 12 124 0 93 -4 120 -22
159 -29 64 -84 95 -141 79z"/>
<path d="M4855 11628 c-41 -32 -55 -76 -55 -172 0 -79 15 -186 27 -186 3 0
212 59 306 86 25 8 21 31 -21 120 -63 129 -112 174 -190 174 -25 0 -49 -8 -67
-22z"/>
<path d="M7804 11631 c-42 -26 -75 -71 -118 -161 -40 -83 -44 -106 -18 -114
93 -27 302 -86 305 -86 23 0 35 225 17 292 -22 79 -114 113 -186 69z"/>
<path d="M4512 11520 c-18 -11 -40 -36 -48 -55 -18 -44 -18 -163 1 -240 20
-85 19 -87 -20 -20 -66 117 -154 195 -220 195 -77 0 -120 -60 -119 -166 1 -63
30 -188 51 -221 6 -8 57 11 170 62 89 40 234 98 323 130 88 32 160 62 160 68
0 21 -75 150 -113 193 -65 73 -125 91 -185 54z"/>
<path d="M8175 11526 c-43 -18 -106 -93 -149 -175 -20 -38 -36 -73 -36 -78 0
-6 72 -36 160 -68 89 -32 234 -90 323 -130 113 -51 164 -70 170 -62 21 33 50
159 51 222 1 105 -42 165 -119 165 -66 0 -154 -78 -220 -195 -39 -67 -40 -65
-20 20 19 77 19 196 1 240 -17 39 -68 75 -106 75 -14 -1 -39 -7 -55 -14z"/>
<path d="M3840 11222 c-65 -32 -86 -117 -56 -227 17 -64 56 -155 66 -155 7 0
289 147 299 156 8 7 -91 143 -127 175 -37 33 -106 68 -132 69 -8 0 -31 -8 -50
-18z"/>
<path d="M8878 11230 c-47 -14 -95 -49 -136 -98 -46 -56 -97 -131 -91 -136 10
-9 292 -156 299 -156 21 0 80 185 80 252 0 98 -72 163 -152 138z"/>
<path d="M3508 11033 c-45 -28 -62 -71 -55 -139 6 -64 47 -185 76 -223 l18
-24 142 88 c77 49 141 93 141 99 0 6 -18 34 -40 61 -108 133 -210 182 -282
138z"/>
<path d="M9171 11034 c-19 -8 -53 -30 -76 -48 -43 -36 -125 -136 -125 -153 0
-5 64 -49 141 -98 l142 -88 18 24 c29 38 70 159 76 223 12 120 -71 186 -176
140z"/>
<path d="M6034 11031 c-62 -16 -128 -55 -190 -114 -36 -33 -63 -62 -60 -64 2
-2 51 10 108 27 151 46 265 50 468 15 l35 -6 -40 36 c-87 79 -235 128 -321
106z"/>
<path d="M6636 11029 c-54 -13 -149 -65 -193 -106 l-38 -34 35 6 c203 35 317
31 468 -15 57 -17 106 -29 108 -27 10 10 -129 127 -179 151 -62 29 -144 40
-201 25z"/>
<path d="M5398 10936 c-59 -21 -130 -78 -181 -145 -26 -35 -46 -65 -44 -67 2
-2 48 16 101 41 141 66 197 79 358 79 76 1 138 2 138 3 0 1 -22 15 -50 32
-105 65 -235 88 -322 57z"/>
<path d="M7187 10930 c-45 -16 -157 -75 -157 -83 0 -1 62 -2 138 -3 161 0 216
-12 358 -79 53 -25 99 -43 101 -41 2 2 -18 32 -44 67 -52 69 -135 133 -192
149 -56 16 -141 11 -204 -10z"/>
<path d="M3198 10822 c-33 -19 -58 -68 -58 -109 0 -63 76 -247 110 -268 11 -7
279 184 280 199 0 4 -33 41 -72 80 -108 107 -194 140 -260 98z"/>
<path d="M9460 10818 c-43 -21 -190 -156 -190 -174 1 -15 269 -206 280 -199
17 11 78 129 94 184 20 68 20 104 1 145 -31 65 -105 83 -185 44z"/>
<path d="M4782 10754 c-57 -28 -127 -100 -166 -169 -46 -84 -43 -88 31 -38
147 99 236 132 408 154 88 11 96 13 79 26 -38 27 -145 53 -223 53 -63 0 -87
-5 -129 -26z"/>
<path d="M7737 10756 c-103 -35 -102 -42 9 -56 171 -21 260 -55 407 -153 74
-50 77 -46 31 38 -39 69 -109 141 -166 169 -70 35 -182 36 -281 2z"/>
<path d="M2914 10600 c-63 -25 -82 -113 -45 -211 23 -59 100 -181 112 -177 15
6 259 211 259 218 0 4 -29 35 -64 67 -100 94 -194 131 -262 103z"/>
<path d="M9741 10583 c-50 -24 -181 -136 -181 -153 0 -7 244 -212 259 -218 12
-4 89 118 112 177 10 28 19 74 19 102 0 45 -4 55 -34 85 -44 44 -98 46 -175 7z"/>
<path d="M4277 10526 c-66 -18 -125 -62 -169 -125 -38 -54 -82 -155 -75 -174
1 -5 32 16 67 47 130 114 207 155 378 199 45 12 82 24 82 27 0 11 -96 32 -165
36 -42 2 -90 -2 -118 -10z"/>
<path d="M8365 10536 c-5 -2 -36 -9 -67 -16 -32 -7 -58 -16 -58 -19 0 -3 37
-16 83 -28 174 -45 254 -88 382 -205 l68 -63 -6 35 c-4 19 -20 62 -36 95 -65
132 -151 193 -283 201 -40 2 -77 2 -83 0z"/>
<path d="M6260 10494 c-1054 -42 -2017 -462 -2755 -1199 -651 -651 -1059
-1488 -1170 -2400 -34 -276 -36 -680 -5 -955 152 -1352 973 -2546 2184 -3176
382 -198 785 -333 1211 -403 428 -72 922 -72 1350 0 1286 214 2392 1029 2981
2196 319 632 464 1307 433 2026 -81 1927 -1499 3530 -3412 3857 -223 38 -596
62 -817 54z m217 -177 c32 -30 36 -39 36 -82 0 -43 -4 -52 -36 -82 -29 -26
-45 -33 -77 -33 -32 0 -48 7 -77 33 -32 30 -36 39 -36 82 0 43 4 52 36 82 29
26 45 33 77 33 32 0 48 -7 77 -33z m-401 -18 c50 -47 48 -123 -6 -171 -55 -50
-142 -31 -175 38 -24 50 -13 95 32 134 32 28 41 32 80 27 27 -3 54 -14 69 -28z
m798 0 c44 -38 54 -83 31 -133 -45 -95 -187 -83 -213 17 -30 112 96 192 182
116z m-1231 -40 c64 -33 90 -92 67 -150 -18 -43 -56 -69 -101 -69 -76 0 -119
41 -119 115 0 79 86 138 153 104z m1600 -3 c60 -25 84 -97 55 -161 -24 -54
-121 -74 -170 -35 -53 41 -61 126 -15 167 49 45 78 51 130 29z m-1953 -123
c59 -53 48 -153 -20 -188 -82 -42 -170 14 -170 111 0 28 8 44 34 70 29 29 41
34 80 34 36 0 52 -6 76 -27z m2370 0 c59 -53 48 -153 -20 -188 -86 -45 -180
22 -167 119 8 58 52 96 112 96 35 0 52 -6 75 -27z m-1195 -95 c36 -28 56 -78
49 -117 -10 -46 -66 -91 -114 -91 -48 0 -104 45 -114 91 -13 66 46 139 114
139 23 0 48 -8 65 -22z m-370 -20 c64 -50 65 -131 4 -183 -46 -38 -99 -35
-147 9 -33 30 -37 40 -37 81 0 41 4 51 37 81 46 42 100 46 143 12z m753 -12
c33 -30 37 -40 37 -81 0 -41 -4 -51 -37 -81 -30 -27 -46 -34 -77 -34 -78 0
-137 83 -108 152 35 83 120 103 185 44z m-1936 -13 c83 -73 37 -203 -72 -203
-121 0 -157 160 -49 218 31 17 95 9 121 -15z m3120 0 c83 -73 37 -203 -72
-203 -121 0 -157 160 -49 218 31 17 95 9 121 -15z m-2302 -33 c82 -59 50 -190
-52 -206 -70 -12 -128 40 -128 114 0 37 6 50 34 78 28 28 42 34 76 34 26 0 53
-8 70 -20z m1486 -14 c28 -28 34 -42 34 -76 0 -105 -120 -157 -194 -84 -73 74
-23 194 81 194 38 0 50 -5 79 -34z m-1827 -102 c30 -33 33 -41 28 -81 -8 -75
-76 -125 -143 -103 -100 33 -114 167 -22 214 49 25 96 14 137 -30z m2155 31
c66 -32 87 -119 41 -174 -70 -82 -190 -46 -202 62 -4 36 -1 48 23 76 43 52 83
62 138 36z m-2983 -71 c74 -70 27 -194 -72 -194 -76 0 -119 41 -119 115 0 99
119 148 191 79z m3802 22 c41 -17 67 -55 67 -100 0 -74 -42 -116 -118 -116
-100 0 -147 124 -74 192 43 41 73 46 125 24z m-1898 -78 c50 -39 65 -114 32
-158 -63 -83 -191 -56 -211 43 -13 65 47 137 114 137 23 0 48 -8 65 -22z
m-1446 -12 c52 -27 69 -120 31 -169 -25 -31 -80 -51 -119 -42 -34 7 -77 50
-86 87 -9 37 11 93 42 118 30 24 91 26 132 6z m1101 -3 c52 -35 68 -84 46
-136 -22 -52 -52 -72 -106 -72 -55 0 -84 20 -107 73 -41 98 79 195 167 135z
m678 3 c47 -24 70 -88 49 -138 -23 -53 -52 -73 -107 -73 -54 0 -84 20 -106 72
-41 97 67 189 164 139z m1115 -6 c31 -25 51 -81 42 -118 -9 -37 -52 -80 -86
-87 -39 -9 -94 11 -119 42 -40 51 -22 140 35 171 33 19 99 14 128 -8z m-2138
-46 c34 -16 65 -65 65 -104 0 -29 -26 -76 -52 -94 -12 -9 -42 -16 -66 -16 -37
0 -50 6 -78 34 -28 28 -34 42 -34 75 0 93 82 145 165 105z m1354 2 c39 -21 61
-58 61 -107 0 -33 -6 -47 -34 -75 -28 -28 -41 -34 -78 -34 -50 0 -82 18 -103
60 -19 37 -19 64 1 105 26 56 97 79 153 51z m-2934 -80 c40 -17 65 -60 65
-112 0 -28 -8 -44 -34 -70 -29 -29 -41 -34 -80 -34 -120 0 -160 161 -54 213
41 20 59 21 103 3z m4511 -2 c59 -28 80 -95 49 -154 -21 -42 -53 -60 -103 -60
-37 0 -50 6 -78 34 -26 26 -34 42 -34 70 0 51 25 95 63 111 42 19 62 18 103
-1z m-3256 -9 c34 -17 60 -62 60 -100 0 -137 -209 -155 -227 -19 -6 52 10 90
49 114 39 24 78 25 118 5z m2010 0 c64 -33 78 -131 27 -182 -51 -51 -149 -37
-182 27 -53 103 52 208 155 155z m-2784 -21 c87 -41 85 -168 -3 -209 -33 -16
-41 -16 -77 -4 -46 16 -86 67 -86 108 0 38 36 90 73 106 42 18 52 18 93 -1z
m3539 2 c39 -17 75 -68 75 -107 0 -41 -40 -92 -86 -108 -36 -12 -44 -12 -77 4
-87 41 -90 166 -5 208 41 20 50 21 93 3z m-3085 -101 c37 -19 60 -62 60 -111
0 -28 -8 -44 -34 -70 -28 -28 -41 -34 -78 -34 -50 0 -82 18 -103 60 -19 38
-19 75 1 109 33 57 97 75 154 46z m2650 -1 c55 -33 74 -97 45 -154 -21 -42
-53 -60 -103 -60 -37 0 -50 6 -78 34 -26 26 -34 42 -34 70 0 97 91 156 170
110z m-1308 -21 c83 -73 37 -203 -72 -203 -121 0 -157 160 -49 218 31 17 95 9
121 -15z m-323 -8 c42 -21 66 -78 52 -125 -17 -57 -53 -85 -111 -85 -55 0 -84
20 -107 73 -41 97 68 188 166 137z m619 1 c47 -24 70 -88 49 -138 -23 -53 -52
-73 -107 -73 -58 0 -94 28 -111 85 -28 94 78 173 169 126z m-906 -65 c29 -26
33 -36 33 -80 0 -41 -5 -55 -29 -80 -76 -79 -196 -27 -196 85 0 28 8 44 34 70
29 29 41 34 80 34 36 0 52 -6 78 -29z m1234 -5 c26 -26 34 -42 34 -70 0 -52
-23 -90 -66 -111 -47 -22 -92 -13 -130 26 -24 25 -29 39 -29 80 0 44 4 54 33
80 26 23 42 29 78 29 39 0 51 -5 80 -34z m-2700 -30 c26 -26 34 -42 34 -70 0
-49 -23 -92 -60 -111 -37 -19 -64 -19 -104 0 -59 28 -81 96 -51 155 21 42 53
60 103 60 37 0 50 -6 78 -34z m4152 18 c28 -19 52 -65 52 -99 0 -57 -61 -115
-120 -115 -60 0 -110 57 -110 126 0 28 8 44 34 70 28 28 41 34 78 34 24 0 54
-7 66 -16z m-4648 -23 c36 -26 51 -61 46 -104 -5 -47 -37 -84 -86 -98 -70 -21
-140 35 -140 111 0 56 29 93 90 114 22 7 62 -3 90 -23z m5114 14 c88 -42 87
-169 -2 -211 -69 -33 -150 17 -159 98 -6 50 20 92 71 114 40 17 51 17 90 -1z
m-4172 -45 c56 -43 61 -125 10 -173 -77 -73 -192 -21 -192 87 0 30 7 45 34 72
29 29 41 34 79 34 29 0 53 -7 69 -20z m719 -8 c24 -21 32 -39 36 -73 5 -41 2
-50 -27 -82 -75 -86 -200 -38 -200 79 0 28 8 44 34 70 29 29 41 34 80 34 36 0
52 -6 77 -28z m1835 -6 c26 -26 34 -42 34 -70 0 -52 -23 -90 -66 -111 -50 -24
-95 -13 -134 32 -29 32 -32 41 -27 82 7 63 49 101 113 101 39 0 51 -5 80 -34z
m710 0 c27 -27 34 -42 34 -72 0 -53 -30 -99 -75 -114 -123 -41 -209 120 -107
200 16 13 40 20 69 20 38 0 50 -5 79 -34z m-2836 -103 c61 -54 48 -153 -24
-187 -42 -20 -69 -20 -106 -1 -37 19 -60 62 -60 111 0 28 8 44 34 70 29 29 41
34 80 34 36 0 52 -6 76 -27z m2416 -7 c26 -26 34 -42 34 -70 0 -49 -23 -92
-60 -111 -37 -19 -64 -19 -106 1 -109 52 -69 214 52 214 39 0 51 -5 80 -34z
m-1214 -23 c83 -73 37 -203 -72 -203 -121 0 -157 160 -49 218 31 17 95 9 121
-15z m-281 -14 c16 -11 33 -36 40 -59 10 -32 9 -44 -7 -77 -47 -96 -185 -89
-213 11 -12 47 -3 82 31 116 37 38 104 42 149 9z m567 -9 c92 -92 -9 -240
-126 -183 -76 37 -91 128 -30 185 24 23 39 28 78 28 40 0 53 -5 78 -30z
m-2646 -29 c22 -25 28 -41 28 -77 0 -39 -5 -51 -34 -80 -39 -39 -86 -45 -137
-18 -54 27 -73 117 -36 164 47 61 130 65 179 11z m428 24 c42 -21 60 -53 60
-103 0 -37 -6 -50 -34 -78 -29 -29 -41 -34 -79 -34 -104 0 -155 122 -79 192
44 41 83 48 132 23z m3851 -21 c76 -73 28 -194 -78 -194 -38 0 -50 5 -79 34
-28 28 -34 42 -34 76 0 52 13 76 53 101 43 27 99 20 138 -17z m440 19 c29 -17
59 -67 59 -97 0 -35 -30 -85 -59 -100 -51 -27 -98 -21 -137 18 -96 96 20 248
137 179z m-2931 -18 c16 -9 36 -29 45 -45 45 -86 -22 -180 -119 -167 -104 14
-133 153 -44 207 39 24 78 25 118 5z m1110 0 c63 -33 80 -123 33 -175 -53 -59
-153 -48 -188 20 -53 103 52 208 155 155z m-3400 -52 c52 -35 68 -84 46 -136
-19 -46 -49 -69 -99 -74 -36 -4 -48 -1 -75 22 -45 38 -59 91 -37 139 10 20 29
43 44 51 36 19 91 19 121 -2z m1386 -17 c29 -29 34 -41 34 -80 0 -64 -38 -106
-101 -113 -41 -5 -50 -2 -82 26 -42 37 -53 77 -37 127 15 44 61 74 114 74 30
0 45 -7 72 -34z m2945 18 c38 -19 63 -75 54 -120 -3 -20 -20 -45 -42 -64 -32
-29 -41 -32 -82 -27 -63 7 -101 49 -101 113 0 39 5 51 34 80 39 39 86 45 137
18z m1369 -1 c52 -36 68 -84 46 -137 -22 -53 -63 -79 -114 -73 -52 6 -88 36
-103 87 -28 94 90 179 171 123z m-3686 -18 c110 -52 72 -215 -50 -215 -39 0
-51 5 -80 34 -26 26 -34 42 -34 70 0 51 25 95 63 111 42 18 62 18 101 0z
m1651 1 c40 -17 65 -60 65 -112 0 -28 -8 -44 -34 -70 -29 -29 -41 -34 -80 -34
-121 0 -160 161 -52 214 39 19 58 20 101 2z m-1884 -122 c76 -73 27 -194 -78
-194 -38 0 -50 5 -79 34 -28 28 -34 42 -34 75 0 105 116 156 191 85z m2144 22
c40 -17 65 -60 65 -112 0 -28 -8 -44 -34 -70 -29 -29 -41 -34 -79 -34 -104 0
-155 122 -79 192 44 41 72 46 127 24z m-3243 -36 c56 -43 61 -125 10 -173 -35
-33 -72 -42 -116 -27 -50 16 -76 53 -76 107 0 38 5 50 34 79 29 29 41 34 79
34 29 0 53 -7 69 -20z m4364 -14 c28 -28 34 -42 34 -76 0 -53 -29 -95 -76
-110 -122 -41 -208 121 -106 200 16 13 40 20 69 20 38 0 50 -5 79 -34z m-3920
-20 c29 -29 34 -41 34 -79 0 -105 -121 -155 -193 -79 -33 35 -42 72 -27 116
16 48 55 75 109 76 36 0 49 -6 77 -34z m3474 14 c33 -24 55 -80 45 -118 -16
-66 -95 -107 -156 -82 -45 19 -69 56 -69 107 0 38 5 50 34 79 28 28 42 34 76
34 26 0 53 -8 70 -20z m-4394 -16 c41 -20 64 -59 64 -110 0 -28 -8 -44 -34
-70 -29 -29 -41 -34 -80 -34 -121 0 -160 161 -52 214 40 20 60 20 102 0z
m5268 1 c110 -52 72 -215 -50 -215 -39 0 -51 5 -80 34 -26 26 -34 42 -34 70 0
50 23 90 62 109 41 21 62 21 102 2z m-3964 -60 c79 -41 77 -160 -2 -201 -77
-40 -168 14 -168 100 0 91 88 143 170 101z m2702 -24 c61 -68 22 -176 -68
-188 -97 -13 -164 81 -119 167 35 68 135 79 187 21z m-4472 -36 c42 -21 60
-53 60 -103 0 -37 -6 -50 -34 -78 -26 -26 -42 -34 -70 -34 -49 0 -92 23 -111
60 -19 37 -19 64 1 106 28 59 94 80 154 49z m6209 0 c28 -14 61 -68 61 -99 0
-63 -57 -116 -126 -116 -54 0 -104 53 -104 110 0 52 13 76 53 100 38 24 78 25
116 5z m-5096 -49 c43 -18 67 -56 67 -107 0 -33 -6 -47 -34 -75 -29 -29 -41
-34 -79 -34 -104 0 -155 122 -79 192 43 41 73 46 125 24z m3998 -22 c76 -73
27 -194 -78 -194 -38 0 -50 5 -79 34 -28 28 -34 41 -34 78 0 51 20 85 64 104
42 19 93 10 127 -22z m-4411 -14 c33 -24 55 -80 45 -118 -16 -66 -95 -107
-156 -82 -45 19 -69 56 -69 107 0 38 5 50 34 79 28 28 42 34 76 34 26 0 53 -8
70 -20z m4846 -14 c29 -29 34 -41 34 -79 0 -105 -121 -155 -193 -79 -33 35
-42 72 -27 116 16 48 55 75 109 76 36 0 49 -6 77 -34z m-4005 1 c45 -30 64
-85 45 -131 -42 -101 -183 -101 -216 0 -14 42 -8 71 21 108 40 50 97 59 150
23z m3154 -7 c38 -36 50 -75 36 -120 -31 -103 -176 -108 -216 -8 -43 108 96
207 180 128z m-4434 -86 c77 -73 26 -194 -81 -194 -34 0 -48 6 -76 34 -28 28
-34 42 -34 76 0 52 13 76 53 101 43 27 99 20 138 -17z m5709 21 c42 -21 60
-53 60 -103 0 -37 -6 -50 -34 -78 -28 -28 -42 -34 -76 -34 -106 0 -158 121
-82 192 44 41 83 48 132 23z m-5070 -100 c42 -21 60 -53 60 -103 0 -37 -6 -50
-34 -78 -28 -28 -42 -34 -76 -34 -106 0 -158 121 -82 192 44 41 83 48 132 23z
m421 -1 c37 -19 63 -75 55 -119 -4 -17 -20 -45 -37 -61 -41 -39 -114 -42 -153
-5 -52 49 -51 124 4 174 35 31 84 36 131 11z m3589 -11 c55 -50 56 -125 4
-174 -39 -36 -112 -34 -153 5 -37 35 -46 74 -31 122 24 73 123 98 180 47z
m421 -9 c76 -73 26 -194 -81 -194 -34 0 -48 6 -76 34 -28 28 -34 42 -34 76 0
52 13 76 53 101 43 27 99 20 138 -17z m-2053 15 c392 -43 782 -206 1092 -456
99 -80 271 -258 347 -359 365 -489 501 -1086 382 -1684 -124 -626 -551 -1174
-1135 -1461 -281 -138 -593 -209 -914 -209 -237 0 -432 31 -659 106 -464 152
-861 468 -1127 897 -196 316 -304 700 -304 1082 0 474 149 910 439 1290 64 84
242 266 331 338 304 245 698 412 1076 455 113 13 358 14 472 1z m-3489 -63
c33 -18 51 -54 51 -105 0 -99 -124 -146 -193 -73 -33 35 -42 72 -27 116 22 67
102 96 169 62z m681 -1 c42 -21 60 -53 60 -103 0 -37 -6 -50 -34 -78 -29 -29
-41 -34 -79 -34 -104 0 -155 122 -79 192 44 41 83 48 132 23z m5291 -21 c76
-73 28 -194 -78 -194 -38 0 -50 5 -79 34 -28 28 -34 42 -34 76 0 52 13 76 53
101 43 27 99 20 138 -17z m679 16 c16 -11 34 -36 40 -56 41 -122 -121 -208
-200 -106 -26 32 -27 108 -2 138 39 48 113 59 162 24z m-5292 -144 c16 -15 26
-39 29 -68 5 -40 2 -49 -27 -81 -75 -86 -200 -38 -200 77 0 97 127 143 198 72z
m3975 -6 c49 -55 28 -148 -40 -177 -51 -21 -95 -10 -133 34 -28 32 -32 41 -27
80 12 105 128 142 200 63z m-5085 10 c19 -12 40 -37 49 -57 56 -135 -149 -219
-212 -86 -16 33 -16 41 -4 77 16 46 67 86 108 86 14 0 41 -9 59 -20z m6140 0
c101 -62 58 -210 -60 -210 -82 0 -136 78 -105 153 17 40 68 77 107 77 14 0 40
-9 58 -20z m-5447 -46 c76 -73 27 -194 -78 -194 -38 0 -50 5 -79 34 -28 28
-34 41 -34 78 0 51 20 85 64 104 42 19 93 10 127 -22z m4763 22 c45 -19 66
-52 66 -104 0 -37 -6 -50 -34 -78 -29 -29 -41 -34 -79 -34 -104 0 -155 122
-79 192 44 41 73 46 126 24z m-5194 -126 c33 -24 55 -80 45 -118 -16 -66 -95
-107 -156 -82 -45 19 -69 56 -69 107 0 38 5 50 34 79 28 28 42 34 76 34 26 0
53 -8 70 -20z m5646 -14 c29 -29 34 -41 34 -79 0 -105 -121 -155 -193 -79 -73
77 -21 192 87 192 30 0 45 -7 72 -34z m-5013 -30 c42 -17 67 -55 67 -102 0
-70 -49 -119 -116 -117 -68 2 -121 64 -111 130 7 41 21 59 62 85 36 22 55 22
98 4z m4325 0 c63 -33 87 -97 58 -154 -42 -82 -154 -89 -199 -12 -36 60 -13
140 48 166 39 17 60 17 93 0z m-5642 -22 c61 -41 56 -160 -8 -191 -43 -22 -66
-24 -100 -10 -53 23 -73 52 -73 107 0 96 99 147 181 94z m7004 -3 c36 -26 51
-61 46 -104 -17 -142 -226 -130 -226 13 0 56 29 93 90 114 22 7 62 -3 90 -23z
m-6059 -87 c76 -73 27 -194 -78 -194 -38 0 -50 5 -79 34 -105 105 50 263 157
160z m5104 22 c40 -17 65 -60 65 -112 0 -28 -8 -44 -34 -70 -28 -28 -41 -34
-78 -34 -50 0 -82 18 -103 60 -23 44 -19 84 12 120 42 50 80 60 138 36z
m-5774 -62 c73 -70 27 -194 -72 -194 -77 0 -119 41 -119 117 0 98 119 146 191
77z m6443 22 c44 -18 66 -51 66 -98 0 -76 -41 -118 -118 -118 -49 0 -86 28
-102 75 -15 46 -5 86 28 117 43 41 73 46 126 24z m-5524 -123 c59 -53 48 -153
-20 -188 -86 -45 -180 22 -167 119 8 58 52 96 112 96 35 0 52 -6 75 -27z
m4630 0 c59 -53 48 -153 -20 -188 -86 -45 -180 22 -167 119 8 58 52 96 112 96
35 0 52 -6 75 -27z m-5310 2 c42 -21 60 -53 60 -103 0 -37 -6 -50 -34 -78 -28
-28 -41 -34 -78 -34 -50 0 -82 18 -103 60 -52 101 54 207 155 155z m5950 -1
c55 -33 74 -97 45 -154 -21 -42 -53 -60 -103 -60 -37 0 -50 6 -78 34 -28 28
-34 42 -34 76 0 52 13 76 53 100 39 24 80 25 117 4z m-5680 -119 c79 -41 77
-160 -2 -201 -78 -40 -168 14 -168 102 0 39 5 51 34 80 39 39 86 45 136 19z
m5442 -24 c61 -68 22 -176 -68 -188 -97 -13 -164 81 -119 167 35 68 135 79
187 21z m-6382 4 c107 -56 58 -215 -66 -215 -28 0 -44 8 -70 34 -29 29 -34 41
-34 81 0 40 5 52 34 81 39 39 86 45 136 19z m7316 -19 c29 -29 34 -41 34 -81
0 -40 -5 -52 -34 -81 -93 -93 -242 18 -181 136 19 37 59 59 109 60 30 0 45 -7
72 -34z m-7027 -82 c74 -62 46 -183 -46 -200 -45 -8 -75 1 -106 32 -100 100
44 259 152 168z m6732 9 c29 -17 59 -67 59 -98 0 -32 -30 -81 -61 -99 -40 -23
-102 -16 -135 15 -99 93 19 251 137 182z m-5795 -27 c29 -29 34 -41 34 -79 0
-105 -121 -155 -193 -79 -33 35 -42 72 -27 116 16 48 55 75 109 76 36 0 49 -6
77 -34z m4870 15 c37 -22 59 -78 49 -119 -16 -66 -95 -107 -156 -82 -45 19
-69 56 -69 107 0 38 5 50 34 79 40 40 92 46 142 15z m-5519 -93 c51 -52 37
-150 -27 -183 -102 -53 -208 53 -155 155 33 63 131 78 182 28z m6163 17 c16
-9 36 -29 45 -45 53 -102 -53 -208 -155 -155 -79 41 -76 172 5 206 32 13 74
10 105 -6z m-5911 -90 c37 -19 65 -77 57 -120 -7 -37 -48 -83 -83 -91 -74 -19
-143 35 -143 113 0 38 5 50 34 79 38 38 86 45 135 19z m5657 -19 c29 -29 34
-41 34 -79 0 -106 -119 -156 -193 -81 -36 35 -43 82 -22 128 21 44 56 65 109
66 30 0 45 -7 72 -34z m-5360 -90 c29 -29 34 -41 34 -79 0 -106 -119 -156
-193 -81 -74 74 -21 194 87 194 30 0 45 -7 72 -34z m5065 18 c63 -32 74 -126
22 -178 -74 -75 -193 -25 -193 81 0 38 5 50 34 79 39 39 86 45 137 18z m-6281
-41 c60 -55 55 -137 -10 -181 -27 -18 -44 -23 -74 -19 -45 6 -92 47 -101 88
-23 105 106 183 185 112z m7491 11 c37 -19 63 -75 55 -119 -13 -70 -101 -113
-164 -81 -59 31 -79 90 -52 156 23 56 99 77 161 44z m-7209 -64 c80 -62 46
-190 -54 -206 -70 -12 -128 40 -128 114 0 37 6 50 34 78 29 29 41 34 79 34 29
0 53 -7 69 -20z m6944 -14 c29 -29 34 -41 34 -79 0 -104 -120 -154 -194 -81
-73 74 -23 194 81 194 38 0 50 -5 79 -34z m-6650 -60 c28 -28 34 -41 34 -78 0
-50 -18 -82 -60 -103 -59 -30 -127 -8 -155 51 -39 83 13 163 109 164 30 0 45
-7 72 -34z m6350 15 c60 -37 69 -123 18 -175 -74 -73 -194 -23 -194 81 0 38 5
50 34 79 40 40 92 46 142 15z m-6087 -56 c37 -19 65 -77 57 -119 -4 -18 -20
-46 -37 -62 -41 -39 -114 -42 -153 -5 -52 49 -51 124 4 174 35 31 84 36 129
12z m5811 -12 c55 -50 56 -125 4 -174 -39 -37 -112 -34 -153 5 -39 38 -48 83
-26 130 33 69 120 88 175 39z m-5510 -60 c59 -53 48 -153 -20 -188 -102 -53
-208 53 -155 155 33 63 123 80 175 33z m5210 12 c34 -17 60 -62 60 -100 0 -38
-26 -83 -60 -100 -86 -45 -180 22 -167 119 11 80 93 119 167 81z m-6434 -151
c67 -32 85 -120 37 -174 -72 -79 -188 -42 -200 63 -5 38 -1 48 26 80 29 32 47
41 89 46 8 0 29 -6 48 -15z m7663 -31 c30 -32 33 -40 28 -80 -12 -105 -128
-142 -199 -63 -49 53 -31 141 34 174 48 24 95 13 137 -31z m-7341 -28 c57 -62
36 -148 -46 -182 -103 -43 -198 91 -125 177 52 62 117 64 171 5z m7050 0 c57
-62 36 -148 -46 -182 -103 -43 -198 91 -125 177 52 62 117 64 171 5z m-6778
-14 c36 -26 51 -61 46 -104 -5 -45 -28 -74 -73 -93 -73 -31 -153 25 -153 106
0 95 103 147 180 91z m6471 6 c9 -6 24 -23 33 -38 55 -93 -39 -207 -137 -165
-52 22 -72 52 -72 106 0 54 20 84 70 106 31 14 76 10 106 -9z m-6183 -33 c34
-22 56 -75 48 -117 -8 -41 -50 -82 -95 -92 -40 -8 -98 19 -116 56 -29 56 -11
133 37 156 52 26 83 25 126 -3z m5898 0 c43 -29 57 -100 29 -153 -8 -16 -31
-36 -51 -46 -100 -47 -203 69 -144 163 36 58 108 73 166 36z m-5606 -33 c14
-10 31 -36 39 -58 13 -36 12 -43 -5 -79 -27 -55 -81 -81 -134 -65 -54 16 -80
52 -80 112 0 39 5 52 30 78 44 44 98 48 150 12z m5285 19 c7 0 27 -14 44 -31
26 -26 31 -38 31 -78 0 -59 -26 -96 -79 -112 -100 -30 -187 85 -129 171 23 35
80 63 106 54 8 -2 20 -4 27 -4z m-6491 -284 c81 -34 101 -119 43 -183 -30 -32
-39 -36 -82 -36 -43 0 -52 4 -82 36 -45 50 -46 102 -3 151 27 30 40 37 83 45
4 0 22 -5 41 -13z m334 -32 c45 -48 45 -100 -1 -151 -30 -32 -39 -36 -82 -36
-43 0 -52 4 -82 36 -57 63 -38 148 41 183 44 19 86 8 124 -32z m290 0 c83 -87
-10 -227 -122 -180 -100 42 -101 168 -2 212 44 19 86 8 124 -32z m278 20 c61
-41 56 -160 -8 -191 -43 -22 -66 -24 -100 -10 -53 23 -73 52 -73 107 0 96 99
147 181 94z m290 0 c61 -41 56 -160 -8 -191 -43 -22 -66 -24 -100 -10 -53 23
-73 52 -73 107 0 96 99 147 181 94z m5344 -3 c36 -26 51 -61 46 -104 -17 -142
-226 -130 -226 13 0 56 29 93 90 114 22 7 62 -3 90 -23z m290 0 c36 -26 51
-61 46 -104 -17 -142 -226 -130 -226 13 0 56 29 93 90 114 22 7 62 -3 90 -23z
m264 15 c101 -42 101 -170 0 -212 -110 -46 -203 89 -124 180 27 30 40 37 83
45 4 0 22 -5 41 -13z m290 0 c81 -34 101 -119 43 -183 -30 -32 -39 -36 -82
-36 -43 0 -52 4 -82 36 -45 50 -46 102 -3 151 27 30 40 37 83 45 4 0 22 -5 41
-13z m290 0 c81 -34 101 -119 43 -183 -30 -32 -39 -36 -82 -36 -43 0 -52 4
-82 36 -57 63 -38 148 41 183 39 17 40 17 80 0z m-6466 -292 c31 -20 55 -78
47 -115 -14 -63 -76 -104 -139 -92 -15 3 -40 19 -56 35 -25 24 -30 38 -30 77
0 54 19 87 64 107 35 16 78 11 114 -12z m5296 12 c46 -19 66 -52 66 -107 0
-39 -5 -53 -30 -77 -54 -54 -135 -46 -178 18 -39 57 -14 137 51 165 41 18 50
18 91 1z m-5609 -30 c39 -17 75 -68 75 -107 0 -41 -40 -92 -86 -108 -36 -12
-44 -12 -77 4 -87 41 -90 166 -5 208 41 20 50 21 93 3z m5901 -2 c40 -19 64
-59 64 -104 0 -117 -148 -158 -210 -58 -38 60 -13 134 55 164 39 17 50 17 91
-2z m-6166 -43 c36 -26 51 -61 46 -104 -17 -144 -226 -129 -226 15 0 93 104
144 180 89z m6488 -17 c24 -25 32 -43 32 -69 0 -115 -128 -162 -205 -75 -14
15 -20 36 -20 70 0 54 20 84 70 106 42 19 85 8 123 -32z m-6804 2 c79 -33 100
-118 45 -180 -38 -44 -83 -54 -131 -32 -92 44 -89 170 6 212 39 17 40 17 80 0z
m7050 0 c81 -34 101 -119 42 -184 -30 -33 -40 -37 -81 -37 -41 0 -51 4 -81 37
-26 29 -34 46 -34 77 0 45 29 87 74 107 39 17 40 17 80 0z m-7291 -66 c49 -55
30 -142 -39 -175 -50 -23 -95 -13 -133 31 -41 46 -42 99 -5 143 48 57 125 58
177 1z m7625 6 c16 -15 26 -39 29 -68 5 -40 2 -49 -27 -81 -74 -85 -200 -37
-200 77 0 97 127 143 198 72z m-6458 -131 c68 -35 79 -135 20 -187 -51 -47
-134 -35 -170 24 -63 103 43 218 150 163z m5230 0 c34 -17 60 -62 60 -100 0
-96 -120 -151 -190 -87 -101 90 10 249 130 187z m-5489 -81 c103 -99 -41 -260
-150 -168 -66 55 -53 162 24 195 35 15 95 3 126 -27z m5795 5 c50 -47 48 -123
-6 -171 -77 -70 -205 4 -186 106 6 31 45 77 76 89 29 12 92 -1 116 -24z
m-6106 -44 c42 -21 60 -53 60 -103 0 -37 -6 -50 -34 -78 -28 -28 -42 -34 -75
-34 -49 0 -86 22 -107 61 -18 36 -18 63 2 105 28 59 94 80 154 49z m6365 -1
c34 -16 65 -65 65 -104 0 -60 -55 -110 -121 -110 -33 0 -47 6 -75 34 -28 28
-34 42 -34 76 0 52 13 76 53 100 39 24 68 25 112 4z m-6624 -80 c76 -73 28
-194 -78 -194 -38 0 -50 5 -79 34 -28 28 -34 42 -34 76 0 52 13 76 53 101 43
27 99 20 138 -17z m6909 21 c42 -21 60 -53 60 -103 0 -37 -6 -50 -34 -78 -29
-29 -41 -34 -79 -34 -104 0 -155 122 -79 192 44 41 83 48 132 23z m-7209 -68
c92 -62 49 -207 -62 -207 -104 0 -156 123 -81 192 48 45 92 49 143 15z m7514
-7 c38 -36 50 -75 36 -120 -21 -70 -101 -101 -170 -65 -47 24 -68 104 -41 155
32 59 127 75 175 30z m-6315 -15 c42 -21 60 -53 60 -103 0 -37 -6 -50 -34 -78
-26 -26 -42 -34 -70 -34 -53 0 -95 25 -113 67 -42 102 59 198 157 148z m5091
-2 c29 -17 59 -67 59 -97 0 -63 -57 -116 -126 -116 -54 0 -104 53 -104 110 0
52 13 76 53 100 39 24 80 25 118 3z m-5360 -90 c29 -17 59 -67 59 -98 0 -32
-33 -86 -61 -100 -49 -26 -97 -19 -135 19 -96 96 20 248 137 179z m5661 -22
c22 -25 28 -41 28 -77 0 -39 -5 -51 -34 -80 -38 -38 -86 -45 -135 -19 -55 28
-75 118 -38 165 47 61 130 65 179 11z m-5942 -66 c58 -30 76 -104 40 -163 -44
-72 -156 -68 -195 8 -53 103 52 208 155 155z m6190 0 c34 -17 60 -62 60 -100
0 -112 -152 -158 -210 -63 -63 103 43 218 150 163z m-5540 -80 c42 -21 60 -53
60 -103 0 -37 -6 -50 -34 -78 -28 -28 -42 -34 -76 -34 -105 0 -157 122 -82
192 44 41 84 48 132 23z m4911 -21 c76 -73 26 -194 -81 -194 -34 0 -48 6 -76
34 -28 28 -34 42 -34 76 0 52 13 76 53 101 43 27 99 20 138 -17z m-5815 -5
c99 -93 -20 -251 -137 -182 -104 62 -51 223 69 210 27 -3 53 -14 68 -28z
m6725 14 c29 -17 59 -67 59 -98 0 -31 -30 -81 -59 -98 -87 -51 -198 29 -171
123 23 79 103 113 171 73z m-7022 -88 c30 -15 61 -69 61 -105 0 -99 -135 -146
-202 -70 -22 24 -28 40 -28 76 0 39 5 51 34 80 38 38 86 45 135 19z m7317 -19
c29 -29 34 -41 34 -80 0 -61 -37 -105 -96 -113 -100 -13 -169 89 -115 171 26
39 57 55 105 56 30 0 45 -7 72 -34z m-6378 0 c13 -7 32 -26 43 -42 51 -78 -8
-174 -107 -174 -28 0 -44 8 -70 34 -29 29 -34 41 -34 79 0 90 91 146 168 103z
m5438 -20 c29 -29 34 -41 34 -81 0 -40 -5 -52 -34 -81 -93 -93 -242 18 -181
136 19 37 59 59 109 60 30 0 45 -7 72 -34z m-5680 -120 c28 -28 34 -41 34 -78
0 -50 -18 -82 -60 -103 -37 -19 -64 -19 -104 0 -113 54 -71 213 58 215 30 0
45 -7 72 -34z m5924 19 c80 -42 77 -161 -6 -200 -40 -19 -67 -19 -104 0 -42
21 -60 53 -60 103 0 37 6 50 34 78 39 39 86 45 136 19z m-5290 -10 c68 -35 79
-135 20 -187 -65 -59 -173 -22 -187 64 -15 98 80 168 167 123z m4630 0 c68
-35 79 -135 20 -187 -65 -59 -173 -22 -187 64 -15 98 80 168 167 123z m-5537
-115 c31 -25 51 -81 42 -118 -9 -37 -52 -80 -86 -87 -39 -9 -94 11 -119 42
-23 30 -26 95 -6 132 29 52 121 69 169 31z m6466 6 c52 -27 69 -120 31 -169
-25 -31 -80 -51 -119 -42 -34 7 -77 50 -86 87 -9 37 11 93 42 118 30 24 91 26
132 6z m-5797 -46 c56 -43 61 -125 10 -173 -77 -73 -192 -21 -192 87 0 30 7
45 34 72 29 29 41 34 79 34 29 0 53 -7 69 -20z m5144 -14 c26 -26 34 -42 34
-70 0 -53 -25 -95 -67 -113 -51 -21 -95 -10 -132 33 -35 39 -40 78 -16 124 21
42 53 60 103 60 37 0 50 -6 78 -34z m-6085 -59 c26 -16 49 -62 49 -97 0 -110
-130 -155 -205 -70 -14 15 -20 36 -20 70 0 54 20 84 70 106 31 14 76 10 106
-9z m7009 -6 c36 -26 51 -61 46 -104 -17 -144 -226 -129 -226 15 0 93 104 144
180 89z m-5692 4 c100 -40 95 -185 -8 -216 -68 -21 -137 25 -147 98 -8 61 37
113 114 132 2 1 20 -6 41 -14z m4350 -12 c60 -37 66 -131 11 -177 -40 -34 -70
-41 -113 -26 -98 32 -102 175 -7 214 39 16 72 12 109 -11z m-4967 -69 c77 -74
24 -194 -87 -194 -54 0 -104 53 -104 110 0 52 13 76 53 101 43 27 99 20 138
-17z m5609 21 c42 -21 60 -53 60 -103 0 -37 -6 -50 -34 -78 -26 -26 -42 -34
-70 -34 -109 0 -165 121 -88 192 44 41 83 48 132 23z m-5198 -125 c56 -43 61
-125 10 -173 -35 -33 -72 -42 -116 -27 -66 21 -96 96 -65 163 25 55 122 76
171 37z m4804 -14 c29 -29 34 -41 34 -79 0 -54 -26 -91 -76 -107 -122 -41
-208 121 -106 200 16 13 40 20 69 20 38 0 50 -5 79 -34z m-5487 -11 c16 -8 36
-31 46 -52 16 -33 16 -41 4 -77 -16 -46 -67 -86 -109 -86 -42 0 -93 40 -109
86 -12 36 -12 44 4 77 29 62 101 85 164 52z m6139 1 c27 -14 45 -40 57 -83 15
-54 -54 -133 -116 -133 -41 0 -92 40 -108 86 -12 36 -12 44 4 77 29 62 101 85
163 53z m-5029 -42 c30 -33 33 -41 28 -82 -7 -64 -49 -102 -113 -102 -39 0
-51 5 -80 34 -26 26 -34 42 -34 70 0 115 121 164 199 80z m3936 32 c40 -17 65
-60 65 -112 0 -28 -8 -44 -34 -70 -29 -29 -41 -34 -80 -34 -64 0 -106 38 -113
101 -4 39 -1 50 23 78 43 51 80 61 139 37z m-5305 -131 c40 -21 60 -53 60 -97
0 -75 -42 -118 -115 -118 -100 0 -150 124 -77 192 44 41 84 48 132 23z m716
-19 c29 -29 34 -41 34 -79 0 -51 -24 -88 -69 -107 -94 -39 -193 68 -147 158
22 43 54 62 104 62 37 0 50 -6 78 -34z m5256 14 c80 -62 46 -190 -54 -206 -70
-12 -128 40 -128 114 0 37 6 50 34 78 29 29 41 34 79 34 29 0 53 -7 69 -20z
m699 -16 c74 -70 26 -194 -76 -194 -71 0 -114 41 -115 108 0 54 12 77 53 103
43 27 99 20 138 -17z m-5525 -68 c29 -29 34 -41 34 -79 0 -105 -121 -155 -193
-79 -49 52 -48 115 5 164 24 22 39 28 75 28 38 0 50 -5 79 -34z m415 -2 c77
-73 24 -194 -85 -194 -92 0 -142 122 -79 193 42 46 117 46 164 1z m3575 5 c50
-47 48 -123 -6 -171 -77 -71 -205 3 -186 107 6 30 45 76 76 88 29 12 92 -1
116 -24z m404 11 c33 -24 55 -80 45 -118 -16 -66 -95 -107 -156 -82 -45 19
-69 56 -69 107 0 38 5 50 34 79 28 28 42 34 76 34 26 0 53 -8 70 -20z m-5080
-95 c65 -34 76 -121 24 -176 -73 -76 -194 -27 -194 78 0 38 5 50 34 79 39 39
86 45 136 19z m5756 -19 c28 -28 34 -41 34 -78 0 -74 -58 -126 -128 -114 -104
16 -135 154 -48 207 50 31 102 25 142 -15z m-4451 -68 c66 -52 64 -139 -5
-186 -115 -78 -240 84 -138 180 39 36 101 39 143 6z m3145 2 c32 -23 55 -79
46 -115 -18 -72 -98 -112 -162 -82 -83 40 -92 153 -16 200 37 23 98 21 132 -3z
m-3979 -26 c76 -73 26 -194 -81 -194 -34 0 -48 6 -76 34 -28 28 -34 42 -34 76
0 52 13 76 53 101 43 27 99 20 138 -17z m4809 21 c42 -21 60 -53 60 -103 0
-37 -6 -50 -34 -78 -29 -29 -41 -34 -79 -34 -54 0 -91 26 -107 75 -15 46 -5
86 28 117 44 41 84 48 132 23z m-4374 -49 c28 -28 34 -42 34 -76 0 -53 -29
-95 -76 -110 -122 -41 -208 121 -106 200 16 13 40 20 69 20 38 0 50 -5 79 -34z
m3956 14 c56 -43 61 -125 10 -173 -35 -33 -72 -42 -116 -27 -50 16 -76 53 -76
107 0 38 5 50 34 79 29 29 41 34 79 34 29 0 53 -7 69 -20z m-5076 -64 c28 -28
34 -41 34 -78 0 -50 -18 -82 -60 -103 -59 -31 -126 -10 -154 49 -20 42 -20 69
-1 106 19 37 59 59 109 60 30 0 45 -7 72 -34z m6185 18 c29 -15 59 -65 59
-100 0 -31 -33 -85 -61 -99 -36 -19 -72 -19 -109 0 -42 21 -60 53 -60 103 0
37 6 50 34 78 39 39 86 45 137 18z m-4441 -59 c79 -41 77 -160 -2 -201 -77
-40 -168 14 -168 100 0 91 88 143 170 101z m2702 -24 c61 -68 22 -176 -68
-188 -97 -13 -164 81 -119 167 35 68 135 79 187 21z m-3976 -55 c26 -26 34
-42 34 -70 0 -52 -23 -90 -66 -111 -46 -21 -93 -14 -128 22 -75 74 -25 193 81
193 38 0 50 -5 79 -34z m5263 8 c52 -43 54 -118 5 -167 -75 -75 -194 -20 -194
89 0 28 8 44 34 70 45 45 108 48 155 8z m-4399 -9 c42 -21 60 -53 60 -103 0
-37 -6 -50 -34 -78 -28 -28 -42 -34 -76 -34 -105 0 -157 122 -82 192 44 41 84
48 132 23z m3511 -21 c76 -73 26 -194 -81 -194 -34 0 -48 6 -76 34 -28 28 -34
42 -34 76 0 52 13 76 53 101 43 27 99 20 138 -17z m-3920 -20 c76 -73 27 -194
-78 -194 -38 0 -50 5 -79 34 -28 28 -34 41 -34 78 0 51 20 85 64 104 42 19 93
10 127 -22z m4322 22 c43 -18 67 -56 67 -107 0 -33 -6 -47 -34 -75 -29 -29
-41 -34 -79 -34 -104 0 -155 122 -79 192 43 41 73 46 125 24z m-3241 -36 c56
-43 61 -125 10 -173 -76 -72 -192 -23 -192 83 0 34 6 48 34 76 29 29 41 34 79
34 29 0 53 -7 69 -20z m2184 -14 c28 -28 34 -42 34 -76 0 -53 -29 -95 -76
-110 -122 -41 -208 121 -106 200 16 13 40 20 69 20 38 0 50 -5 79 -34z m-1917
-92 c52 -43 54 -118 5 -167 -75 -75 -194 -20 -194 89 0 28 8 44 34 70 45 45
108 48 155 8z m1657 -8 c26 -26 34 -42 34 -70 0 -109 -119 -164 -194 -89 -75
74 -25 193 81 193 38 0 50 -5 79 -34z m-3684 -13 c29 -26 49 -77 42 -110 -22
-108 -171 -127 -218 -28 -27 56 1 132 58 156 31 13 94 4 118 -18z m1380 -12
c22 -25 28 -41 28 -77 0 -39 -5 -51 -34 -80 -26 -26 -42 -34 -70 -34 -53 0
-95 25 -113 67 -21 51 -10 95 34 133 32 29 41 32 82 27 34 -4 52 -12 73 -36z
m2952 8 c86 -75 36 -199 -80 -199 -28 0 -44 8 -70 34 -29 29 -34 41 -34 79 0
103 108 154 184 86z m1361 9 c91 -71 48 -208 -65 -208 -39 0 -84 26 -101 57
-56 104 75 223 166 151z m-3415 -43 c103 -53 60 -215 -57 -215 -38 0 -91 34
-103 66 -42 108 59 201 160 149z m1142 -24 c48 -53 31 -143 -32 -176 -102 -53
-208 53 -155 155 35 68 135 79 187 21z m-2936 -15 c29 -29 34 -41 34 -79 0
-106 -119 -156 -193 -81 -74 74 -21 194 87 194 30 0 45 -7 72 -34z m460 0 c29
-29 34 -41 34 -79 0 -51 -24 -88 -69 -107 -94 -39 -193 68 -147 158 22 43 54
62 104 62 37 0 50 -6 78 -34z m3816 14 c80 -62 46 -190 -54 -206 -70 -12 -128
40 -128 114 0 37 6 50 34 78 29 29 41 34 79 34 29 0 53 -7 69 -20z m449 4 c63
-32 74 -126 22 -178 -74 -75 -193 -25 -193 81 0 38 5 50 34 79 39 39 86 45
137 18z m-2643 -31 c37 -23 56 -79 43 -124 -16 -53 -53 -79 -112 -79 -40 0
-52 5 -78 31 -30 30 -36 49 -32 99 7 82 104 121 179 73z m562 -2 c30 -21 50
-76 43 -114 -3 -16 -19 -41 -35 -57 -24 -25 -38 -30 -77 -30 -58 0 -94 25
-111 75 -35 107 87 193 180 126z m-292 -5 c47 -24 70 -88 49 -138 -23 -53 -52
-73 -107 -73 -55 0 -84 20 -107 73 -41 97 68 188 165 138z m-1208 -31 c104
-54 62 -215 -56 -215 -39 0 -51 5 -80 34 -93 93 18 242 136 181z m2410 0 c37
-19 60 -62 60 -111 0 -28 -8 -44 -34 -70 -29 -29 -41 -34 -80 -34 -59 0 -104
37 -113 92 -15 98 80 168 167 123z m-2809 -131 c76 -73 27 -194 -78 -194 -38
0 -50 5 -79 34 -105 105 50 263 157 160z m718 -10 c30 -33 33 -41 28 -82 -7
-64 -49 -102 -113 -102 -39 0 -51 5 -80 34 -26 26 -34 42 -34 70 0 116 121
165 199 80z m1796 32 c40 -17 65 -60 65 -112 0 -28 -8 -44 -34 -70 -29 -29
-41 -34 -80 -34 -121 0 -160 161 -52 214 39 19 58 20 101 2z m710 0 c40 -17
65 -60 65 -112 0 -28 -8 -44 -34 -70 -29 -29 -41 -34 -79 -34 -104 0 -155 122
-79 192 44 41 72 46 127 24z m-4175 -45 c36 -26 51 -61 46 -104 -5 -45 -28
-74 -73 -93 -98 -42 -189 67 -139 165 30 58 110 74 166 32z m5114 14 c130 -62
45 -267 -87 -211 -52 22 -72 52 -72 106 0 54 20 84 70 106 39 17 51 17 89 -1z
m-4644 -20 c37 -19 60 -62 60 -111 0 -28 -8 -44 -34 -70 -28 -28 -41 -34 -78
-34 -50 0 -82 18 -103 60 -30 58 -8 126 49 154 40 20 70 20 106 1z m4191 -21
c76 -73 28 -194 -78 -194 -38 0 -50 5 -79 34 -39 39 -45 86 -19 136 33 65 121
77 176 24z m-2696 -34 c25 -26 30 -38 30 -81 0 -45 -4 -54 -33 -80 -26 -23
-42 -29 -78 -29 -39 0 -51 5 -80 34 -26 26 -34 42 -34 70 0 111 118 163 195
86z m1201 24 c41 -20 64 -59 64 -110 0 -28 -8 -44 -34 -70 -29 -29 -41 -34
-80 -34 -36 0 -52 6 -78 29 -29 26 -33 36 -33 79 0 40 5 56 25 77 43 47 81 55
136 29z m-900 -65 c13 -13 29 -39 35 -59 21 -70 -35 -140 -111 -140 -117 0
-158 148 -58 210 41 26 100 21 134 -11z m602 11 c100 -61 59 -210 -58 -210
-70 0 -129 67 -115 130 19 85 102 123 173 80z m-308 -17 c52 -35 68 -84 46
-136 -22 -52 -52 -72 -106 -72 -55 0 -84 20 -107 73 -41 98 79 195 167 135z
m-1304 -27 c26 -26 34 -42 34 -70 0 -49 -23 -92 -60 -111 -37 -19 -64 -19
-104 0 -59 28 -81 96 -51 155 21 42 53 60 103 60 37 0 50 -6 78 -34z m2632 18
c28 -19 52 -65 52 -99 0 -57 -61 -115 -120 -115 -60 0 -110 57 -110 126 0 28
8 44 34 70 28 28 41 34 78 34 24 0 54 -7 66 -16z m-3113 -88 c38 -16 65 -60
65 -106 0 -117 -149 -158 -210 -58 -11 18 -20 44 -20 58 0 37 36 89 73 105 41
18 50 18 92 1z m3540 0 c39 -16 75 -68 75 -106 0 -14 -9 -40 -20 -58 -61 -100
-210 -59 -210 58 0 45 27 89 63 105 41 18 50 18 92 1z m-2765 -31 c16 -9 36
-29 45 -45 55 -107 -60 -213 -163 -150 -39 24 -55 62 -49 113 11 81 92 121
167 82z m2018 -5 c95 -58 49 -210 -63 -210 -38 0 -83 26 -100 60 -55 107 60
213 163 150z m-3242 -24 c26 -26 34 -42 34 -70 0 -49 -23 -92 -60 -111 -37
-19 -64 -19 -106 1 -109 52 -69 214 52 214 39 0 51 -5 80 -34z m4504 7 c61
-54 48 -153 -24 -187 -42 -20 -69 -20 -106 -1 -37 19 -60 62 -60 111 0 28 8
44 34 70 29 29 41 34 80 34 36 0 52 -6 76 -27z m-2938 -73 c55 -43 61 -125 12
-174 -74 -73 -194 -21 -194 84 0 34 6 48 34 76 29 29 41 34 79 34 29 0 53 -7
69 -20z m1364 -14 c28 -28 34 -42 34 -76 0 -105 -120 -157 -194 -84 -73 74
-23 194 81 194 38 0 50 -5 79 -34z m-2152 -30 c44 -18 66 -51 66 -98 0 -76
-41 -118 -118 -118 -49 0 -86 28 -102 75 -15 46 -5 86 28 117 43 41 73 46 126
24z m1128 -13 c44 -39 56 -112 25 -153 -37 -48 -102 -63 -155 -36 -78 40 -72
160 9 204 31 17 95 9 121 -15z m680 0 c44 -39 56 -112 25 -153 -38 -50 -105
-64 -157 -33 -104 61 -47 223 73 209 21 -2 48 -13 59 -23z m1109 -9 c73 -70
27 -194 -73 -194 -75 0 -117 40 -118 110 0 53 20 86 64 106 42 19 93 10 127
-22z m-1448 -14 c58 -51 55 -129 -8 -178 -77 -61 -198 19 -179 117 10 46 66
91 114 91 29 0 48 -8 73 -30z m-1921 -60 c102 -80 15 -240 -108 -200 -86 29
-101 163 -23 206 36 20 102 17 131 -6z m3827 6 c79 -42 64 -177 -25 -206 -122
-41 -208 121 -106 200 29 24 91 26 131 6z m-2991 -70 c16 -15 26 -39 29 -68 5
-40 2 -49 -27 -81 -54 -62 -142 -57 -183 12 -69 117 85 234 181 137z m2195 -6
c95 -105 -67 -253 -167 -153 -64 64 -36 168 50 192 41 11 84 -4 117 -39z
m-1868 -66 c34 -16 65 -65 65 -104 0 -29 -26 -76 -52 -94 -12 -9 -42 -16 -66
-16 -37 0 -50 6 -78 34 -28 28 -34 42 -34 75 0 93 82 145 165 105z m1474 2
c39 -21 61 -58 61 -107 0 -33 -6 -47 -34 -75 -28 -28 -41 -34 -78 -34 -50 0
-82 18 -103 60 -19 37 -19 64 1 105 26 56 97 79 153 51z m-2291 -40 c47 -24
70 -88 49 -138 -23 -53 -52 -73 -107 -73 -55 0 -84 20 -107 73 -41 97 68 188
165 138z m3122 -3 c52 -35 68 -84 46 -136 -22 -52 -52 -72 -106 -72 -55 0 -84
20 -107 73 -41 98 79 195 167 135z m-1925 -25 c64 -50 65 -131 4 -183 -46 -38
-99 -35 -147 9 -33 30 -37 40 -37 81 0 41 4 51 37 81 46 42 100 46 143 12z
m753 -12 c33 -30 37 -40 37 -81 0 -41 -4 -51 -37 -81 -30 -27 -46 -34 -77 -34
-78 0 -137 83 -108 152 35 83 120 103 185 44z m-375 -16 c41 -35 52 -78 33
-124 -34 -81 -119 -101 -183 -43 -32 30 -36 39 -36 82 0 43 4 52 36 82 49 45
102 46 150 3z m-1203 -85 c37 -19 60 -62 60 -111 0 -28 -8 -44 -34 -70 -29
-29 -41 -34 -81 -34 -40 0 -52 5 -81 34 -26 26 -34 42 -34 70 0 95 89 153 170
111z m2365 1 c110 -46 70 -216 -51 -216 -39 0 -51 5 -80 34 -39 39 -45 86 -19
136 28 54 87 72 150 46z m-1963 -116 c58 -45 61 -129 7 -174 -40 -34 -70 -41
-113 -26 -88 29 -104 162 -25 206 36 20 102 17 131 -6z m1587 6 c79 -42 64
-177 -25 -206 -43 -15 -73 -8 -113 26 -78 65 -31 194 71 194 21 0 51 -6 67
-14z m-1189 -73 c79 -72 42 -188 -63 -200 -39 -5 -48 -1 -80 27 -45 39 -56 84
-32 134 33 69 120 88 175 39z m789 12 c16 -8 36 -31 46 -51 24 -50 13 -95 -32
-134 -32 -28 -41 -32 -80 -27 -105 12 -142 128 -63 200 35 31 84 36 129 12z
m-394 -27 c63 -49 66 -127 8 -178 -48 -43 -101 -42 -150 3 -32 30 -36 39 -36
82 0 43 4 52 36 82 45 41 99 45 142 11z"/>
<path d="M6336 8294 c-32 -80 -59 -144 -61 -142 -1 2 -37 64 -80 138 -42 74
-78 136 -80 138 -1 2 -19 -67 -40 -153 -20 -85 -39 -155 -41 -155 -2 0 -47 57
-101 127 l-98 126 -17 -149 c-9 -82 -17 -156 -17 -164 -1 -8 -52 36 -114 98
-62 61 -114 112 -117 112 -5 0 9 -412 14 -417 1 -2 56 21 122 50 230 104 479
157 729 157 l123 0 -76 190 c-42 105 -79 190 -82 190 -4 0 -32 -65 -64 -146z
m102 -87 c17 -45 32 -86 32 -90 0 -4 -31 -7 -70 -7 -38 0 -70 3 -70 7 0 13 65
173 70 173 3 0 20 -37 38 -83z m-244 -28 c41 -75 42 -73 -49 -84 -53 -7 -57
-6 -52 11 3 11 14 52 23 92 20 84 21 83 78 -19z m-255 -34 c28 -35 51 -68 51
-73 0 -9 -120 -46 -126 -39 -8 7 9 177 17 177 4 0 30 -29 58 -65z m-230 -177
c-34 -15 -66 -28 -70 -28 -5 0 -9 44 -9 97 l0 97 70 -69 70 -69 -61 -28z"/>
<path d="M6706 8229 c-63 -95 -114 -174 -113 -175 1 -1 58 -14 127 -28 243
-51 461 -148 665 -295 61 -43 113 -76 116 -73 10 11 102 382 96 388 -3 3 -63
-31 -133 -75 -71 -44 -130 -78 -132 -77 -2 2 4 64 12 137 24 202 33 194 -101
79 -65 -55 -121 -100 -125 -100 -5 0 -8 51 -9 113 0 61 -4 132 -7 156 l-7 43
-104 -116 c-57 -65 -105 -116 -106 -114 -2 2 -15 70 -29 152 -15 83 -28 152
-31 154 -2 2 -55 -74 -119 -169z m108 -79 c8 -47 13 -86 12 -87 -3 -3 -129 27
-134 32 -2 2 20 38 49 81 29 43 54 74 55 69 2 -6 10 -48 18 -95z m239 -159
c-2 -4 -124 38 -132 45 -2 1 25 35 60 73 l64 71 5 -93 c3 -50 4 -94 3 -96z
m227 -12 c-5 -46 -10 -87 -10 -91 0 -5 -27 5 -60 22 -33 17 -60 34 -60 39 0 9
132 122 137 117 2 -2 -1 -41 -7 -87z m210 -145 c-12 -43 -23 -80 -25 -82 -2
-2 -29 14 -60 37 l-57 40 79 50 c43 28 79 47 81 42 1 -5 -7 -44 -18 -87z"/>
<path d="M5200 8039 c0 -5 16 -71 36 -146 19 -74 33 -137 30 -140 -2 -3 -66
23 -142 56 -75 34 -139 59 -141 57 -2 -2 21 -65 52 -141 31 -75 54 -139 51
-142 -2 -3 -69 14 -147 36 -79 22 -145 39 -147 37 -2 -2 31 -63 73 -136 43
-72 76 -133 73 -135 -2 -2 -72 6 -156 18 -84 13 -151 19 -150 15 2 -4 59 -79
128 -167 l125 -160 16 27 c9 15 42 70 72 123 116 198 275 371 469 510 53 38
99 73 102 78 5 7 -323 221 -339 221 -3 0 -5 -5 -5 -11z m183 -166 l69 -44 -57
-41 c-31 -22 -58 -38 -60 -36 -5 5 -45 155 -45 168 0 12 -2 13 93 -47z m-170
-166 l48 -20 -48 -49 c-26 -26 -50 -48 -54 -48 -7 0 -69 147 -69 163 0 4 17 0
38 -9 20 -9 59 -25 85 -37z m-124 -193 c4 -3 -78 -114 -84 -114 -4 0 -95 157
-95 163 0 5 172 -43 179 -49z m-244 -179 c28 -3 62 -8 77 -11 l28 -6 -33 -59
c-17 -32 -35 -59 -38 -59 -5 0 -36 38 -113 139 -9 11 -7 13 9 8 11 -3 43 -8
70 -12z"/>
<path d="M7722 7700 c-101 -38 -186 -71 -189 -74 -3 -3 35 -49 84 -103 164
-179 279 -377 362 -624 l46 -137 155 128 c85 71 156 133 158 138 2 6 -60 13
-153 17 -85 4 -155 10 -155 14 1 3 48 58 105 120 57 63 103 116 101 118 -1 2
-56 -1 -122 -7 -65 -5 -136 -10 -157 -10 l-38 0 84 123 c104 152 101 146 80
141 -62 -14 -294 -64 -298 -64 -3 0 26 63 65 140 38 77 70 142 70 145 0 9 -9
6 -198 -65z m46 -115 c-23 -47 -46 -85 -49 -85 -9 0 -93 100 -88 103 6 5 163
65 171 66 5 0 -11 -37 -34 -84z m193 -142 c-5 -10 -30 -46 -54 -81 l-45 -63
-41 60 c-41 59 -41 61 -19 66 33 8 152 33 161 34 4 1 3 -7 -2 -16z m90 -272
c-80 -92 -75 -91 -110 -22 -17 33 -31 63 -31 65 0 5 59 10 148 14 l44 2 -51
-59z m103 -181 l51 -1 -40 -35 c-22 -20 -57 -49 -77 -65 l-37 -30 -17 58 c-9
32 -19 64 -22 72 -4 12 4 13 43 8 26 -4 71 -7 99 -7z"/>
<path d="M6246 7619 c-282 -37 -539 -167 -736 -375 -454 -477 -450 -1220 8
-1695 312 -325 766 -450 1204 -333 454 122 805 506 889 974 19 108 17 336 -4
440 -54 260 -175 481 -363 660 -264 252 -637 375 -998 329z m234 -89 c83 -42
115 -130 115 -315 0 -71 -3 -159 -8 -194 l-7 -64 67 112 c131 219 258 319 366
290 49 -13 113 -71 128 -116 32 -98 -43 -255 -205 -430 -32 -35 -56 -63 -53
-63 4 0 47 18 96 40 265 116 412 118 494 8 29 -39 34 -132 10 -178 -46 -88
-260 -185 -468 -212 -37 -5 -31 -7 129 -46 159 -39 242 -76 300 -137 93 -95
67 -235 -52 -287 -38 -17 -58 -20 -120 -14 -81 6 -212 47 -329 101 l-75 34 70
-77 c131 -147 178 -221 202 -320 16 -68 7 -114 -32 -158 -42 -47 -82 -66 -140
-66 -103 0 -218 110 -345 331 l-43 76 7 -60 c5 -33 8 -125 8 -205 0 -142 -1
-147 -31 -211 -37 -77 -76 -109 -140 -117 -56 -6 -125 19 -158 58 -45 55 -61
122 -61 270 0 74 3 164 8 200 l7 65 -67 -114 c-101 -170 -194 -263 -294 -291
-92 -27 -209 69 -209 169 0 86 86 240 210 373 l71 77 -100 -44 c-162 -72 -225
-89 -321 -89 -95 0 -130 13 -173 64 -45 52 -49 156 -9 209 60 82 265 168 457
193 37 5 31 7 -128 46 -249 60 -357 139 -357 261 0 58 21 102 65 139 89 72
239 49 545 -85 8 -4 -15 27 -51 68 -129 145 -176 219 -199 317 -16 68 -7 114
32 158 67 76 152 89 236 35 86 -55 159 -143 248 -300 l44 -76 -8 65 c-12 112
-9 341 7 380 52 131 157 183 261 130z"/>
<path d="M6315 7467 c-48 -48 -65 -116 -65 -259 0 -128 18 -275 53 -432 l22
-98 75 -1 75 -1 22 99 c35 159 53 305 53 433 0 143 -17 211 -65 259 -29 29
-39 33 -85 33 -46 0 -56 -4 -85 -33z"/>
<path d="M5773 7305 c-18 -8 -42 -29 -53 -47 -59 -97 12 -238 235 -467 71 -73
152 -151 178 -173 l48 -41 27 26 c15 14 41 33 59 44 l31 19 -32 74 c-133 306
-273 512 -379 560 -50 23 -71 24 -114 5z"/>
<path d="M6913 7300 c-106 -48 -246 -254 -377 -555 l-34 -79 31 -19 c18 -11
44 -30 59 -44 l27 -26 58 50 c32 28 112 106 178 174 213 219 283 362 225 457
-20 32 -72 62 -107 62 -10 0 -37 -9 -60 -20z"/>
<path d="M5411 6813 c-43 -21 -76 -89 -66 -135 25 -110 244 -203 575 -242 74
-9 149 -18 166 -20 30 -4 32 -3 50 57 10 34 20 67 22 74 6 22 -342 203 -488
253 -88 31 -213 37 -259 13z"/>
<path d="M7123 6795 c-155 -52 -488 -224 -481 -249 2 -6 12 -39 23 -73 16 -54
21 -62 39 -58 12 2 53 7 91 10 290 25 548 103 622 189 42 47 49 85 25 139 -39
87 -145 101 -319 42z"/>
<path d="M6305 6611 c-148 -69 -182 -266 -64 -378 147 -139 389 -36 389 167 0
94 -57 179 -142 214 -50 21 -134 20 -183 -3z"/>
<path d="M6025 6379 c-418 -46 -653 -135 -680 -258 -10 -48 24 -113 70 -136
85 -40 255 0 480 112 95 48 265 142 265 146 0 1 -9 26 -20 55 -11 29 -20 61
-20 72 0 11 -3 19 -7 19 -5 -1 -44 -6 -88 -10z"/>
<path d="M6669 6332 c-9 -31 -19 -64 -23 -73 -8 -19 67 -65 259 -162 301 -150
485 -167 537 -50 24 54 17 92 -25 139 -75 86 -326 162 -622 189 -38 3 -79 8
-90 10 -18 4 -23 -4 -36 -53z"/>
<path d="M6021 6074 c-219 -212 -310 -341 -319 -449 -5 -65 25 -114 85 -134
37 -13 45 -13 87 3 108 41 232 214 372 519 30 65 54 120 54 122 0 3 -17 13
-37 24 -21 10 -47 28 -57 40 -11 12 -23 21 -27 21 -4 0 -75 -66 -158 -146z"/>
<path d="M6591 6196 c-13 -14 -39 -32 -57 -41 l-33 -16 20 -51 c36 -92 148
-309 203 -392 68 -105 142 -179 202 -202 42 -16 50 -16 87 -3 27 9 50 27 65
49 47 69 15 173 -94 317 -53 69 -347 363 -363 363 -4 0 -18 -11 -30 -24z"/>
<path d="M6326 6121 c-7 -11 -45 -208 -61 -309 -8 -56 -15 -155 -15 -220 0
-143 17 -211 65 -259 29 -29 39 -33 85 -33 46 0 56 4 85 33 22 22 39 54 50 92
32 108 11 388 -48 644 l-12 55 -73 1 c-40 1 -75 -1 -76 -4z"/>
<path d="M4613 7047 c-84 -5 -153 -13 -153 -17 0 -6 157 -140 219 -187 9 -6
13 -14 10 -17 -3 -3 -73 -20 -157 -37 -126 -27 -149 -34 -135 -44 10 -6 71
-44 136 -85 82 -50 114 -76 105 -81 -7 -5 -73 -29 -145 -55 -73 -26 -133 -49
-133 -53 0 -3 63 -33 140 -66 77 -33 140 -62 140 -66 0 -3 -53 -33 -117 -67
-65 -33 -127 -67 -137 -75 -20 -14 -20 -15 0 -20 87 -27 378 -106 381 -104 1
2 -4 64 -13 138 -27 236 -1 481 76 716 22 67 40 124 40 127 0 7 -59 6 -257 -7z
m174 -59 c-2 -7 -12 -39 -21 -72 -16 -53 -19 -57 -34 -44 -9 8 -44 37 -76 64
l-59 49 69 6 c122 10 126 10 121 -3z m-67 -232 c0 -18 -19 -119 -24 -123 -1
-2 -37 18 -80 43 -42 26 -74 49 -71 52 4 5 142 38 168 41 4 1 7 -5 7 -13z
m-30 -296 c0 -38 -4 -70 -9 -70 -5 0 -46 17 -92 38 l-84 39 60 22 c33 12 69
26 80 31 41 18 45 13 45 -60z m4 -222 c9 -82 8 -90 -11 -84 -10 2 -51 14 -92
26 l-75 22 80 44 c43 24 82 44 85 44 3 0 9 -24 13 -52z"/>
<path d="M8034 6688 c42 -319 24 -539 -64 -815 -22 -69 -38 -128 -36 -130 7
-7 406 20 406 27 0 3 -52 48 -115 100 -63 52 -115 98 -115 102 0 3 21 11 48
16 256 54 262 55 244 67 -9 6 -70 44 -135 85 -82 50 -114 76 -105 81 7 5 73
29 146 55 72 26 132 49 132 53 0 3 -63 33 -140 66 -77 33 -140 63 -140 66 0 3
58 36 130 73 71 37 132 71 135 76 3 5 -3 11 -12 14 -10 3 -92 26 -183 51 -91
25 -173 48 -183 51 -17 5 -18 1 -13 -38z m175 -68 l75 -22 -80 -44 c-43 -24
-82 -44 -85 -44 -3 0 -9 24 -13 53 -9 81 -8 89 12 83 9 -2 50 -14 91 -26z m-1
-247 c45 -20 80 -38 78 -40 -5 -6 -159 -63 -168 -63 -5 0 -8 32 -8 70 0 39 3
70 8 70 4 0 44 -16 90 -37z m-20 -252 c82 -49 81 -52 -13 -71 -33 -6 -68 -14
-79 -17 -17 -5 -18 -1 -12 43 10 69 17 95 25 92 3 -2 39 -23 79 -47z m-24
-273 l40 -35 -94 -6 c-52 -3 -96 -4 -98 -3 -2 2 7 34 18 70 l22 66 36 -29 c21
-16 55 -45 76 -63z"/>
<path d="M4620 5909 c-85 -71 -156 -133 -158 -138 -2 -5 59 -12 135 -15 76 -4
146 -10 156 -12 14 -5 4 -20 -55 -86 -40 -44 -89 -98 -107 -120 l-35 -41 55 6
c29 4 103 9 163 13 l109 7 -85 -124 c-105 -154 -102 -148 -81 -143 62 14 294
64 298 64 3 0 -27 -63 -66 -141 -38 -78 -68 -143 -66 -145 4 -4 375 131 384
140 3 3 -35 49 -84 103 -167 182 -276 369 -362 625 l-46 136 -155 -129z m149
-36 c11 -37 19 -68 18 -70 -2 -1 -45 1 -97 5 l-94 7 74 62 c41 35 76 63 77 63
1 0 11 -30 22 -67z m92 -224 c16 -34 29 -62 27 -64 -2 -1 -46 -6 -98 -10 l-95
-7 30 33 c52 59 99 109 102 109 1 0 17 -27 34 -61z m119 -209 c40 -58 40 -60
18 -65 -61 -14 -163 -33 -165 -31 -3 2 100 155 104 156 1 0 21 -27 43 -60z
m150 -191 c23 -27 41 -51 39 -53 -2 -1 -35 -14 -74 -28 -38 -15 -78 -29 -88
-33 -14 -6 -9 11 25 79 23 47 45 86 49 86 3 0 25 -23 49 -51z"/>
<path d="M7845 5589 c-130 -223 -284 -395 -487 -540 -53 -38 -99 -73 -102 -78
-6 -10 333 -225 341 -217 3 3 -11 69 -31 147 -20 78 -35 143 -32 146 2 3 66
-23 142 -56 75 -34 139 -59 141 -57 2 2 -21 65 -52 141 -31 75 -54 139 -51
142 2 3 69 -14 147 -36 79 -22 145 -39 147 -37 2 2 -31 63 -73 136 -43 72 -76
133 -73 135 2 2 72 -6 156 -18 84 -13 152 -20 152 -17 0 3 -231 302 -254 327
-1 1 -33 -52 -71 -118z m138 -61 c31 -40 55 -73 54 -74 -2 -2 -88 10 -155 21
l-32 6 32 59 c18 33 36 60 39 60 4 0 32 -32 62 -72z m-139 -208 c25 -43 46
-81 46 -83 0 -5 -172 43 -179 49 -4 3 78 114 84 114 2 0 24 -36 49 -80z m-164
-190 c18 -45 31 -82 29 -85 -2 -2 -41 13 -87 33 l-83 36 48 48 c26 26 50 48
54 48 4 0 21 -36 39 -80z m-210 -85 c0 -3 9 -40 20 -81 12 -42 19 -80 18 -85
-2 -5 -38 14 -81 42 l-79 50 54 39 c51 37 68 46 68 35z"/>
<path d="M5296 5139 c-18 -53 -98 -381 -93 -385 3 -3 63 31 133 75 71 44 130
79 131 77 2 -2 -4 -63 -12 -137 -22 -202 -32 -194 103 -79 64 55 120 100 125
100 4 0 7 -53 8 -117 0 -65 3 -135 7 -157 l7 -38 104 116 c57 65 105 116 106
114 2 -2 15 -70 29 -152 15 -83 28 -152 31 -154 2 -2 55 74 119 169 63 95 114
174 113 175 -1 1 -60 15 -131 29 -273 58 -521 177 -763 368 -9 6 -14 5 -17 -4z
m101 -129 l55 -39 -79 -50 c-43 -28 -79 -47 -81 -42 -1 5 6 43 18 85 11 41 20
78 20 81 0 11 13 4 67 -35z m253 -158 c0 -7 -65 -66 -124 -112 -20 -16 -20
-20 1 137 l5 42 59 -30 c32 -16 59 -33 59 -37z m168 -64 c34 -12 62 -24 62
-27 -1 -3 -30 -37 -65 -75 l-64 -69 -3 97 c-2 53 -1 96 2 96 3 0 33 -10 68
-22z m240 -68 c28 -7 52 -14 52 -16 0 -3 -23 -40 -52 -82 l-52 -77 -13 70 c-7
39 -15 83 -18 98 -4 23 -2 27 13 24 9 -3 41 -11 70 -17z"/>
<path d="M7087 4894 c-222 -101 -466 -154 -719 -154 l-126 0 76 -190 c42 -104
79 -190 82 -190 4 0 32 65 64 146 32 80 59 144 61 142 1 -2 37 -64 80 -138 42
-74 78 -136 79 -138 2 -1 20 68 41 153 20 85 39 155 40 155 2 0 48 -57 102
-127 l98 -126 17 149 c9 82 17 156 17 164 1 8 52 -36 114 -98 62 -61 114 -112
117 -112 3 0 2 71 -2 157 -3 87 -6 182 -7 211 -1 28 -4 52 -8 51 -5 0 -61 -25
-126 -55z m83 -131 l0 -97 -70 69 -70 69 58 27 c31 15 63 28 70 28 9 1 12 -25
12 -96z m-234 -45 c-3 -29 -6 -70 -6 -90 0 -21 -4 -38 -9 -38 -11 0 -111 125
-111 138 0 8 87 38 119 41 11 1 12 -10 7 -51z m-230 -25 c-3 -10 -13 -51 -22
-91 -20 -84 -21 -84 -78 20 l-37 67 23 5 c13 3 32 7 43 9 11 3 33 5 48 6 23 1
27 -3 23 -16z m-236 -10 c0 -13 -65 -173 -70 -173 -5 0 -70 160 -70 173 0 4
32 7 70 7 39 0 70 -3 70 -7z"/>
<path d="M2624 10341 c-39 -24 -58 -70 -51 -122 7 -55 57 -153 107 -211 l42
-48 124 117 c68 65 123 121 122 125 -6 18 -117 101 -172 128 -69 35 -127 39
-172 11z"/>
<path d="M10004 10330 c-55 -27 -166 -110 -172 -128 -1 -4 54 -60 122 -125
l124 -117 42 48 c52 60 101 158 107 215 14 120 -94 172 -223 107z"/>
<path d="M3777 10209 c-87 -20 -163 -82 -207 -168 -22 -44 -50 -143 -50 -176
1 -18 3 -17 26 10 14 17 62 67 107 113 69 71 96 91 186 136 58 29 122 58 141
66 l35 13 -30 7 c-42 10 -162 10 -208 -1z"/>
<path d="M8815 10211 l-30 -8 35 -13 c19 -8 82 -37 140 -66 89 -45 117 -65
187 -136 44 -46 93 -96 107 -113 23 -27 25 -28 26 -10 0 33 -28 132 -51 176
-32 63 -94 124 -152 149 -56 25 -204 36 -262 21z"/>
<path d="M2350 10061 c-37 -37 -46 -74 -31 -130 13 -51 83 -160 131 -206 l32
-30 70 75 c119 128 160 179 153 191 -11 17 -135 94 -183 112 -23 10 -65 17
-93 17 -42 0 -55 -5 -79 -29z"/>
<path d="M10275 10073 c-43 -17 -171 -98 -181 -114 -6 -10 39 -66 154 -189
l70 -75 32 30 c48 46 118 155 131 206 15 56 6 93 -31 130 -24 25 -36 29 -82
28 -29 0 -71 -7 -93 -16z"/>
<path d="M3340 9826 c-167 -37 -256 -147 -267 -331 -3 -50 -2 -76 4 -70 5 6
35 49 66 97 70 106 156 186 276 257 50 30 91 56 91 58 0 8 -120 0 -170 -11z"/>
<path d="M9290 9838 c0 -3 42 -29 92 -59 118 -69 227 -175 296 -289 l52 -84 0
66 c0 169 -82 293 -225 342 -47 16 -215 35 -215 24z"/>
<path d="M2129 9787 c-44 -29 -61 -63 -55 -109 7 -60 47 -127 119 -201 l68
-69 57 74 c162 206 156 197 142 213 -20 25 -130 82 -189 99 -74 22 -102 20
-142 -7z"/>
<path d="M10512 9790 c-61 -22 -154 -73 -172 -95 -13 -16 -19 -8 140 -211 l56
-72 42 35 c52 43 125 144 142 196 22 68 -2 122 -67 156 -31 16 -80 13 -141 -9z"/>
<path d="M1923 9495 c-37 -16 -73 -68 -73 -106 0 -48 49 -126 126 -199 42 -39
79 -70 84 -68 17 6 191 271 186 283 -6 18 -120 73 -186 90 -68 18 -96 18 -137
0z"/>
<path d="M10736 9495 c-62 -17 -176 -73 -182 -90 -5 -12 169 -277 186 -283 18
-6 159 140 185 191 30 61 31 91 5 135 -35 58 -99 73 -194 47z"/>
<path d="M2940 9382 c-118 -31 -201 -96 -243 -191 -21 -48 -35 -197 -23 -247
7 -24 13 -15 67 94 67 136 117 197 242 299 72 57 76 63 50 62 -15 0 -57 -8
-93 -17z"/>
<path d="M9817 9337 c125 -102 175 -163 242 -299 54 -109 60 -118 67 -94 4 16
4 68 2 117 -10 177 -101 282 -280 324 -115 27 -118 22 -31 -48z"/>
<path d="M1712 9170 c-71 -44 -74 -126 -9 -212 30 -39 159 -148 176 -148 4 0
45 66 93 148 97 167 98 151 -17 197 -95 38 -197 45 -243 15z"/>
<path d="M10890 9171 c-30 -10 -77 -28 -103 -41 -45 -21 -47 -24 -34 -44 8
-11 47 -78 87 -148 41 -71 77 -128 80 -128 18 0 143 105 175 146 47 63 60 112
41 158 -31 73 -127 96 -246 57z"/>
<path d="M2596 8885 c-175 -60 -260 -167 -260 -330 0 -74 22 -182 34 -168 3 4
15 37 25 73 48 165 97 250 219 378 32 34 57 64 55 66 -2 2 -35 -7 -73 -19z"/>
<path d="M10130 8903 c0 -3 32 -39 71 -81 114 -122 152 -188 201 -352 29 -99
29 -98 39 -71 6 14 14 57 20 95 27 199 -70 336 -283 400 -27 8 -48 12 -48 9z"/>
<path d="M1538 8844 c-15 -8 -35 -28 -43 -44 -31 -59 -13 -120 56 -189 43 -43
153 -121 171 -121 5 0 42 69 83 153 l73 152 -32 17 c-86 45 -253 62 -308 32z"/>
<path d="M11035 8841 c-33 -9 -72 -24 -86 -32 l-27 -14 73 -152 c41 -84 78
-153 83 -153 17 0 127 77 170 119 90 88 95 193 12 236 -39 20 -149 18 -225 -4z"/>
<path d="M1435 8521 c-69 -17 -105 -59 -105 -121 0 -44 22 -81 78 -132 46 -40
157 -108 179 -108 7 0 84 180 128 301 7 19 -47 40 -149 58 -66 12 -87 12 -131
2z"/>
<path d="M11225 8519 c-96 -19 -147 -40 -140 -58 44 -121 121 -301 128 -301
22 0 133 68 179 108 77 70 96 128 63 192 -29 56 -123 80 -230 59z"/>
<path d="M2282 8330 c-74 -37 -151 -109 -183 -170 -34 -64 -34 -196 -1 -292
13 -38 27 -68 32 -68 4 0 11 28 14 63 18 164 62 276 163 420 30 42 50 77 45
77 -5 0 -36 -14 -70 -30z"/>
<path d="M10492 8284 c101 -144 135 -228 160 -401 7 -46 15 -83 19 -83 4 0 18
30 31 68 33 96 33 228 -1 292 -40 77 -153 169 -240 195 -21 6 -17 -3 31 -71z"/>
<path d="M1294 8170 c-38 -12 -82 -55 -90 -87 -20 -77 42 -155 175 -221 46
-23 89 -42 95 -42 7 0 33 66 59 149 26 82 50 156 53 164 4 10 -8 18 -43 26
-65 17 -211 23 -249 11z"/>
<path d="M11335 8174 c-119 -24 -126 -26 -121 -41 3 -8 27 -82 53 -164 26 -83
52 -149 59 -149 6 0 49 19 95 42 133 66 195 144 175 221 -8 35 -53 75 -95 87
-35 10 -125 12 -166 4z"/>
<path d="M1227 7819 c-88 -21 -127 -59 -127 -123 0 -73 50 -125 180 -185 123
-57 111 -65 154 111 21 84 39 160 42 169 4 14 -9 19 -71 28 -87 13 -124 13
-178 0z"/>
<path d="M11382 7818 c-51 -8 -62 -13 -58 -26 2 -10 21 -86 42 -170 37 -153
38 -153 63 -147 39 9 151 63 194 92 74 51 100 141 57 195 -42 54 -169 78 -298
56z"/>
<path d="M2054 7737 c-183 -135 -218 -286 -112 -489 l33 -63 2 65 c8 204 37
320 119 468 19 34 31 62 26 62 -6 0 -36 -19 -68 -43z"/>
<path d="M10704 7718 c82 -148 111 -264 119 -468 l2 -65 33 63 c106 203 71
354 -112 489 -32 24 -62 43 -68 43 -5 0 7 -28 26 -62z"/>
<path d="M1147 7456 c-152 -42 -172 -173 -40 -257 43 -27 185 -79 216 -79 14
0 74 326 63 338 -13 13 -191 12 -239 -2z"/>
<path d="M11433 7464 c-13 -3 -23 -8 -23 -12 0 -4 12 -80 27 -169 18 -107 32
-163 40 -163 34 0 175 54 220 85 64 43 87 83 80 137 -11 81 -82 120 -227 124
-52 1 -105 0 -117 -2z"/>
<path d="M1901 7110 c-36 -36 -73 -86 -92 -125 -28 -58 -31 -71 -28 -142 3
-64 10 -90 36 -143 18 -36 47 -81 64 -100 l30 -35 -5 50 c-3 28 -9 97 -12 155
-7 113 8 196 61 336 13 35 20 64 15 64 -4 0 -36 -27 -69 -60z"/>
<path d="M10845 7106 c53 -140 68 -223 61 -336 -3 -58 -9 -127 -12 -155 l-5
-50 30 35 c17 19 46 64 64 100 26 53 33 79 36 143 3 71 0 84 -28 142 -29 59
-139 185 -161 185 -5 0 2 -29 15 -64z"/>
<path d="M1115 7096 c-64 -16 -87 -28 -119 -67 -58 -68 -23 -153 84 -206 64
-32 199 -66 211 -54 6 5 39 290 39 329 0 16 -146 15 -215 -2z"/>
<path d="M11470 7099 c0 -40 33 -325 39 -330 12 -12 147 22 211 54 76 38 110
81 110 140 0 32 -7 46 -38 77 -47 47 -90 60 -219 67 -84 5 -103 3 -103 -8z"/>
<path d="M1132 6739 c-74 -14 -150 -54 -172 -91 -57 -93 19 -186 182 -223 58
-13 135 -20 139 -12 1 1 4 77 8 170 l6 167 -60 -1 c-33 -1 -79 -5 -103 -10z"/>
<path d="M11511 6584 c4 -93 7 -170 8 -171 4 -8 81 -1 139 12 92 21 165 64
186 110 52 109 -56 199 -254 212 l-85 6 6 -169z"/>
<path d="M1861 6497 c-143 -174 -139 -338 10 -501 28 -31 54 -55 56 -52 3 3
-8 51 -23 108 -35 127 -38 266 -10 401 10 48 16 90 14 92 -3 3 -24 -19 -47
-48z"/>
<path d="M10894 6518 c34 -190 40 -259 29 -335 -7 -43 -23 -115 -36 -160 -13
-46 -21 -83 -17 -83 5 0 31 25 60 56 118 130 145 265 77 399 -19 39 -105 155
-115 155 -2 0 -2 -15 2 -32z"/>
<path d="M1130 6372 c-158 -41 -225 -129 -170 -220 35 -56 161 -102 284 -102
l51 0 -6 167 c-4 93 -7 169 -8 171 -4 8 -96 -2 -151 -16z"/>
<path d="M11519 6388 c-1 -2 -4 -78 -8 -171 l-6 -167 51 0 c123 0 249 46 284
102 57 93 -19 186 -182 223 -58 13 -135 20 -139 13z"/>
<path d="M1215 6023 c-95 -19 -193 -69 -222 -112 -50 -75 -13 -161 85 -196 64
-23 252 -33 252 -14 0 40 -33 325 -39 330 -3 4 -37 0 -76 -8z"/>
<path d="M11505 6026 c-4 -12 -35 -297 -35 -322 0 -15 12 -16 103 -11 123 6
186 26 227 73 55 63 33 148 -52 197 -76 45 -236 86 -243 63z"/>
<path d="M1906 5887 c-14 -18 -38 -60 -53 -93 -23 -49 -27 -73 -28 -144 0 -98
19 -147 87 -224 35 -41 128 -115 128 -102 0 2 -16 42 -36 88 -64 150 -76 212
-72 369 1 77 2 139 1 139 -1 0 -13 -15 -27 -33z"/>
<path d="M10868 5780 c4 -156 -8 -218 -72 -368 -20 -46 -36 -86 -36 -88 0 -13
93 61 128 102 68 77 87 126 87 224 -1 78 -4 91 -39 162 -20 42 -45 83 -54 91
-16 15 -17 6 -14 -123z"/>
<path d="M1230 5655 c-146 -47 -215 -112 -207 -193 9 -89 83 -127 249 -127 58
0 109 3 113 7 4 4 -6 81 -21 172 -22 130 -32 166 -44 166 -8 -1 -49 -12 -90
-25z"/>
<path d="M11436 5514 c-15 -91 -25 -168 -21 -172 4 -4 55 -7 113 -7 166 0 240
38 249 127 5 55 -18 93 -83 136 -43 29 -185 82 -217 82 -8 0 -22 -57 -41 -166z"/>
<path d="M1310 5303 c-87 -35 -165 -87 -190 -127 -24 -40 -26 -103 -4 -134 40
-57 147 -81 280 -62 71 10 84 15 80 29 -3 9 -21 85 -42 169 -20 83 -42 152
-48 152 -6 0 -40 -12 -76 -27z"/>
<path d="M11366 5178 c-21 -84 -39 -160 -42 -169 -4 -14 9 -19 80 -29 97 -14
173 -7 228 21 48 24 68 55 68 103 0 52 -30 98 -93 139 -47 31 -172 87 -195 87
-5 0 -26 -69 -46 -152z"/>
<path d="M2017 5257 c-38 -83 -47 -122 -47 -202 0 -127 72 -231 210 -304 l62
-33 -37 58 c-102 159 -136 260 -154 454 l-7 85 -27 -58z"/>
<path d="M10750 5271 c0 -24 -7 -91 -15 -150 -17 -114 -56 -212 -137 -340
l-40 -63 63 33 c82 44 154 115 186 185 23 50 25 65 21 142 -3 67 -11 102 -33
152 -38 86 -45 92 -45 41z"/>
<path d="M1382 4940 c-168 -81 -227 -192 -146 -273 37 -37 94 -50 186 -44 106
8 171 26 164 44 -3 8 -27 82 -53 164 -26 82 -52 149 -58 149 -6 0 -48 -18 -93
-40z"/>
<path d="M11267 4831 c-26 -82 -50 -156 -53 -164 -11 -30 205 -59 282 -38 114
31 137 139 48 227 -40 40 -188 124 -219 124 -6 0 -32 -67 -58 -149z"/>
<path d="M2214 4647 c-26 -92 -25 -209 5 -274 30 -67 104 -136 184 -173 115
-52 116 -51 39 45 -39 48 -86 117 -106 154 -32 61 -86 238 -86 282 0 42 -19
24 -36 -34z"/>
<path d="M10557 4700 c-3 -8 -15 -60 -28 -115 -29 -127 -79 -226 -170 -339
-78 -97 -77 -98 38 -46 80 37 154 106 184 173 20 42 24 68 23 137 -2 85 -35
222 -47 190z"/>
<path d="M1516 4608 c-69 -38 -151 -109 -171 -149 -19 -36 -19 -82 0 -119 38
-74 163 -87 328 -33 38 12 47 19 42 32 -47 130 -121 301 -129 301 -6 0 -37
-15 -70 -32z"/>
<path d="M11147 4498 c-31 -79 -59 -150 -62 -159 -5 -13 4 -20 42 -32 165 -54
290 -41 328 33 33 64 14 122 -63 192 -46 40 -157 108 -179 108 -5 0 -35 -64
-66 -142z"/>
<path d="M1652 4271 c-110 -72 -172 -149 -172 -216 0 -38 26 -83 60 -100 57
-29 220 -12 306 33 l32 17 -73 153 c-41 83 -78 152 -83 152 -5 0 -36 -18 -70
-39z"/>
<path d="M10995 4158 l-73 -153 32 -17 c86 -45 249 -62 306 -33 82 42 78 147
-10 235 -41 41 -154 120 -172 120 -5 0 -42 -69 -83 -152z"/>
<path d="M2500 4078 c-15 -84 -3 -183 29 -246 23 -46 95 -113 148 -141 36 -18
146 -51 172 -51 5 0 -30 39 -80 87 -112 108 -156 173 -209 311 -23 59 -44 108
-45 110 -2 2 -9 -30 -15 -70z"/>
<path d="M10242 4041 c-54 -139 -99 -206 -211 -314 -50 -48 -85 -87 -80 -87
26 0 136 33 172 51 53 27 125 95 147 139 39 76 48 197 22 293 -7 26 -12 17
-50 -82z"/>
<path d="M1807 3940 c-118 -89 -172 -184 -144 -252 26 -61 49 -73 141 -73 66
1 94 6 151 29 115 47 114 31 17 199 -48 81 -89 147 -93 147 -3 0 -36 -22 -72
-50z"/>
<path d="M10828 3843 c-97 -168 -98 -152 17 -199 57 -23 85 -28 151 -29 92 0
115 12 141 73 28 68 -26 163 -144 252 -36 28 -69 50 -72 50 -4 0 -45 -66 -93
-147z"/>
<path d="M1976 3610 c-77 -74 -126 -151 -126 -200 0 -40 40 -92 84 -109 32
-12 48 -13 100 -2 68 14 204 75 212 95 5 13 -169 278 -186 284 -5 2 -42 -29
-84 -68z"/>
<path d="M10642 3543 c-51 -75 -91 -142 -88 -149 8 -20 144 -81 212 -95 77
-16 127 0 161 50 30 44 29 75 -2 138 -24 47 -162 193 -183 193 -4 0 -50 -61
-100 -137z"/>
<path d="M2862 3538 c13 -219 109 -325 328 -359 39 -6 75 -9 81 -7 6 2 -15 21
-47 42 -157 103 -225 177 -310 333 -25 46 -48 83 -51 83 -3 0 -3 -42 -1 -92z"/>
<path d="M9886 3547 c-85 -156 -153 -230 -310 -333 -32 -21 -53 -40 -47 -42 6
-2 42 1 81 7 219 34 315 140 328 359 2 50 2 92 -1 92 -3 0 -26 -37 -51 -83z"/>
<path d="M2192 3323 c-81 -84 -117 -150 -117 -216 0 -42 4 -52 32 -78 46 -40
77 -45 152 -25 67 17 178 73 201 101 14 16 20 7 -142 214 l-58 74 -68 -70z"/>
<path d="M10480 3317 c-30 -39 -77 -100 -104 -134 -57 -74 -56 -75 39 -128 73
-41 179 -71 218 -61 15 3 42 19 60 35 28 25 32 36 32 78 0 31 -8 64 -24 93
-27 53 -100 141 -139 169 l-27 19 -55 -71z"/>
<path d="M3287 3118 c7 -59 31 -145 53 -188 25 -48 84 -105 135 -130 53 -25
187 -46 239 -36 l40 8 -91 47 c-50 27 -110 62 -135 79 -53 37 -142 131 -195
207 -21 30 -41 55 -45 55 -3 0 -4 -19 -1 -42z"/>
<path d="M9467 3105 c-53 -76 -142 -170 -195 -207 -25 -17 -85 -52 -135 -79
l-91 -47 40 -8 c52 -10 186 11 239 36 51 25 110 82 135 130 32 63 70 230 52
230 -4 0 -24 -25 -45 -55z"/>
<path d="M2436 3060 c-87 -97 -137 -205 -122 -265 4 -15 21 -41 38 -57 56 -52
159 -34 284 51 37 26 69 51 71 56 3 11 -213 255 -226 255 -5 0 -25 -18 -45
-40z"/>
<path d="M10200 2978 c-60 -67 -109 -127 -107 -133 2 -5 34 -30 71 -56 125
-85 228 -103 284 -51 39 37 48 74 33 131 -17 66 -133 231 -162 231 -4 0 -58
-55 -119 -122z"/>
<path d="M2681 2793 c-53 -61 -102 -159 -108 -216 -14 -120 94 -172 223 -107
55 27 166 110 172 128 1 5 -54 61 -122 125 l-124 117 -41 -47z"/>
<path d="M9951 2721 c-71 -67 -121 -122 -118 -129 14 -21 133 -105 182 -128
121 -57 225 -2 212 113 -6 59 -56 157 -109 215 l-43 48 -124 -119z"/>
<path d="M3772 2730 c28 -172 152 -301 304 -316 59 -6 204 11 204 24 0 4 -35
18 -77 31 -148 47 -222 91 -333 198 -101 96 -103 97 -98 63z"/>
<path d="M8926 2663 c-107 -103 -182 -147 -329 -194 -42 -13 -77 -27 -77 -31
0 -13 145 -30 203 -24 104 11 178 56 236 142 32 49 75 164 69 188 -2 9 -40
-21 -102 -81z"/>
<path d="M2931 2526 c-55 -84 -81 -154 -81 -217 0 -45 4 -55 34 -85 44 -44 98
-46 175 -7 55 27 184 139 179 155 -4 11 -250 218 -259 218 -4 0 -25 -29 -48
-64z"/>
<path d="M9690 2485 c-69 -57 -126 -108 -128 -113 -5 -17 126 -129 182 -157
46 -22 65 -27 103 -22 95 10 129 98 84 218 -20 51 -98 179 -110 179 -3 0 -62
-47 -131 -105z"/>
<path d="M4305 2410 c15 -49 64 -136 98 -175 19 -22 59 -54 88 -69 87 -48 222
-46 344 5 l30 13 -25 3 c-100 16 -251 57 -303 83 -56 29 -86 49 -206 139 l-34
25 8 -24z"/>
<path d="M8430 2379 c-142 -108 -210 -139 -381 -173 -108 -22 -112 -24 -84
-35 174 -70 336 -46 432 64 34 38 110 181 102 190 -2 2 -33 -19 -69 -46z"/>
<path d="M3220 2313 c-66 -104 -94 -225 -66 -284 32 -68 103 -86 185 -47 48
23 195 161 189 177 -3 10 -262 201 -272 201 -4 0 -20 -21 -36 -47z"/>
<path d="M9405 2264 c-71 -53 -132 -100 -133 -105 -6 -16 141 -154 189 -177
82 -39 153 -21 185 47 20 41 15 101 -15 182 -23 59 -76 149 -88 149 -5 -1 -66
-44 -138 -96z"/>
<path d="M4870 2172 c1 -22 104 -153 146 -185 84 -64 170 -80 277 -52 76 20
182 74 147 75 -78 1 -252 23 -295 36 -27 9 -101 43 -162 75 -62 32 -113 55
-113 51z"/>
<path d="M7815 2119 c-60 -32 -133 -65 -160 -73 -44 -13 -222 -35 -295 -36
-20 -1 -13 -7 33 -31 158 -82 293 -75 409 21 34 28 135 167 127 174 -2 2 -53
-23 -114 -55z"/>
<path d="M3522 2118 c-34 -57 -72 -177 -72 -230 0 -132 106 -175 226 -93 52
36 154 149 154 171 0 9 -269 184 -283 184 -3 0 -14 -15 -25 -32z"/>
<path d="M9110 2064 c-74 -46 -136 -90 -138 -97 -4 -20 95 -133 152 -172 31
-21 71 -39 94 -42 76 -10 132 48 132 137 0 68 -73 261 -98 260 -4 -1 -68 -39
-142 -86z"/>
<path d="M5490 1979 c96 -134 235 -204 358 -178 61 12 146 51 200 92 l34 25
-154 -5 c-186 -7 -222 1 -447 95 -9 3 -5 -8 9 -29z"/>
<path d="M7261 1984 c-30 -14 -93 -36 -140 -50 -81 -24 -96 -26 -244 -21
l-158 5 33 -25 c54 -41 139 -80 200 -92 121 -26 262 45 356 177 27 38 24 38
-47 6z"/>
<path d="M3825 1923 c-38 -89 -50 -142 -50 -210 0 -87 20 -121 84 -142 39 -12
45 -11 97 14 36 18 71 46 102 84 51 60 97 130 91 135 -11 10 -291 156 -299
156 -5 0 -17 -17 -25 -37z"/>
<path d="M8795 1883 c-77 -41 -142 -77 -144 -79 -6 -5 40 -75 91 -135 31 -38
66 -66 102 -84 52 -25 58 -26 97 -14 65 21 84 55 83 147 -1 59 -8 96 -31 157
-16 44 -36 81 -44 82 -8 1 -77 -32 -154 -74z"/>
<path d="M6102 1908 c3 -7 36 -36 74 -66 69 -53 165 -92 224 -92 46 0 144 35
191 68 65 46 115 90 109 96 -3 3 -23 1 -45 -5 -107 -25 -196 -39 -255 -39 -56
0 -183 19 -230 34 -47 15 -72 16 -68 4z"/>
<path d="M4141 1745 c-27 -71 -44 -181 -36 -225 14 -75 59 -120 120 -120 66 0
154 78 220 195 39 67 40 65 20 -20 -21 -85 -19 -201 3 -245 24 -48 76 -75 127
-66 53 10 127 87 178 182 20 40 37 76 37 81 0 6 -66 34 -147 63 -121 43 -414
165 -485 201 -14 7 -20 -1 -37 -46z"/>
<path d="M8475 1726 c-88 -40 -233 -98 -322 -130 -90 -33 -163 -63 -163 -69 0
-5 17 -41 37 -81 51 -95 125 -172 178 -182 51 -9 103 18 127 66 22 44 24 160
3 245 -20 85 -19 87 20 20 66 -117 154 -195 220 -195 77 0 120 60 119 165 -1
63 -31 191 -51 221 -6 8 -60 -12 -168 -60z"/>
<path d="M4811 1480 c-15 -72 -14 -214 3 -254 40 -96 156 -103 231 -14 32 38
105 183 105 209 0 10 -8 20 -17 23 -94 27 -303 86 -306 86 -3 0 -10 -23 -16
-50z"/>
<path d="M7798 1482 l-156 -45 14 -39 c20 -57 62 -138 91 -176 78 -102 212
-93 243 16 22 79 5 293 -23 291 -7 0 -82 -21 -169 -47z"/>
<path d="M5162 1413 c-4 -10 -7 -65 -7 -123 0 -86 4 -113 22 -152 55 -121 178
-107 256 30 28 51 78 183 71 191 -4 4 -304 71 -322 71 -7 0 -16 -8 -20 -17z"/>
<path d="M7447 1396 c-81 -19 -149 -35 -151 -37 -7 -8 42 -140 71 -191 41 -72
91 -111 142 -111 83 0 130 68 138 202 6 102 -6 165 -32 168 -11 1 -87 -13
-168 -31z"/>
<path d="M5517 1353 c-13 -12 -7 -168 8 -226 18 -70 39 -103 76 -123 105 -54
212 61 254 273 8 38 16 35 -155 58 -63 8 -129 17 -146 20 -17 3 -33 2 -37 -2z"/>
<path d="M7100 1335 c-85 -13 -156 -24 -158 -24 -6 -2 8 -63 29 -127 51 -158
146 -229 235 -175 56 34 87 135 82 267 -2 61 -6 79 -18 80 -8 1 -85 -8 -170
-21z"/>
<path d="M5870 1246 c0 -166 58 -281 147 -293 92 -12 178 121 195 302 l3 30
-80 6 c-44 4 -122 10 -172 14 l-93 7 0 -66z"/>
<path d="M6720 1296 l-135 -11 3 -30 c17 -181 103 -314 195 -302 89 12 147
127 147 292 l0 65 -37 -1 c-21 -1 -99 -7 -173 -13z"/>
<path d="M6230 1242 c0 -65 35 -198 62 -238 58 -85 158 -85 216 0 27 40 62
173 62 238 l0 48 -170 0 -170 0 0 -48z"/>
</g>
</svg>
